<?xml version="1.0" encoding="UTF-8" standalone="no"?>
<!DOCTYPE svg PUBLIC "-//W3C//DTD SVG 1.1//EN" "http://www.w3.org/Graphics/SVG/1.1/DTD/svg11.dtd">
<svg version="1.1" xmlns="http://www.w3.org/2000/svg" xmlns:xlink="http://www.w3.org/1999/xlink" preserveAspectRatio="xMidYMid meet" viewBox="0 0 640 640" width="640" height="640"><defs><path d="M320 0C143.27 0 0 143.27 0 320C0 496.73 143.27 640 320 640C496.73 640 640 496.73 640 320C640 143.27 496.73 0 320 0Z" id="amBty1neC"></path><path d="M627.32 409.42C615.66 397.75 557.35 339.44 452.39 234.49L390.7 239.29L315.64 164.22L285.52 187.84L281.57 193.22L228.73 243.34L322.47 337.08L142.22 414.02L365.04 636.83C516.81 564.71 604.23 488.9 627.32 409.42Z" id="f9E2rtXsT"></path><path d="M273.09 283.15C345.37 283.15 403.96 341.74 403.96 414.02C386.51 414.02 299.27 414.02 142.22 414.02C181.29 326.77 224.91 283.15 273.09 283.15Z" id="e17ePFj6UM"></path><path d="M275.11 414.02C352.42 414.02 395.37 414.02 403.96 414.02C403.96 342.41 346.45 284.28 275.11 283.2C275.11 300.64 275.11 344.24 275.11 414.02Z" id="aLNFT1FU"></path><path d="M275.2 148.16C242.64 148.16 216.25 174.55 216.25 207.11C216.25 239.66 242.64 266.06 275.2 266.06C307.76 266.06 334.15 239.66 334.15 207.11C334.15 174.55 307.76 148.16 275.2 148.16Z" id="a3LRR4hpO"></path><path d="M275.11 148.16C275.11 159.95 275.11 254.26 275.11 266.05C275.14 266.05 275.17 266.06 275.2 266.06C307.76 266.06 334.15 239.66 334.15 207.11C334.15 174.55 307.76 148.16 275.2 148.16C275.17 148.16 275.14 148.16 275.11 148.16Z" id="ink7NMkIF"></path><path d="M453.87 380.62C453.87 320.21 453.87 286.65 453.87 279.94C453.87 257.52 435.64 239.29 413.23 239.29C390.82 239.29 372.58 257.52 372.58 279.94C372.58 286.65 372.58 320.21 372.58 380.62L353.19 380.62C353.19 320.21 353.19 286.65 353.19 279.94C353.19 246.83 380.12 219.89 413.23 219.89C446.33 219.89 473.27 246.83 473.27 279.94C473.27 286.65 473.27 320.21 473.27 380.62L453.87 380.62Z" id="aQfo5eRNr"></path><path d="M413.02 219.9C413.02 221.84 413.02 237.36 413.02 239.29C413.09 239.29 413.16 239.28 413.23 239.28C435.64 239.28 453.87 257.52 453.87 279.93C453.87 286.64 453.87 320.21 453.87 380.62L473.27 380.62C473.27 320.21 473.27 286.64 473.27 279.93C473.27 246.83 446.33 219.89 413.23 219.89C413.16 219.89 413.09 219.9 413.02 219.9Z" id="avTX7Z7AK"></path><path d="M342.27 465.04C333.85 465.04 327.03 458.22 327.03 449.8C327.03 438.48 327.03 347.93 327.03 336.61C327.03 328.2 333.85 321.38 342.27 321.38C356.46 321.38 469.99 321.38 484.18 321.38C492.6 321.38 499.42 328.2 499.42 336.61C499.42 347.93 499.42 438.48 499.42 449.8C499.42 458.22 492.6 465.04 484.19 465.04C455.8 465.04 356.46 465.04 342.27 465.04Z" id="g2Ipn3mLZq"></path><path d="M413.02 321.38L413.02 465.04C455.72 465.04 479.44 465.04 484.19 465.04C492.6 465.04 499.42 458.22 499.42 449.8C499.42 438.48 499.42 347.93 499.42 336.61C499.42 328.2 492.6 321.38 484.19 321.38C474.7 321.38 450.97 321.38 413.02 321.38Z" id="b4oPglSHRA"></path><path d="M413.23 359.75C401.92 359.75 392.76 368.92 392.76 380.22C392.76 387.79 396.88 394.39 402.99 397.93C402.99 400.23 402.99 418.56 402.99 420.85C402.99 426.51 407.58 431.09 413.23 431.09C418.88 431.09 423.47 426.51 423.47 420.85C423.47 418.56 423.47 400.23 423.47 397.93C429.58 394.39 433.7 387.79 433.7 380.22C433.7 368.92 424.53 359.75 413.23 359.75Z" id="bn5wN21QA"></path><path d="M413.02 359.76C413.02 366.89 413.02 423.94 413.02 431.07C413.09 431.07 413.16 431.09 413.23 431.09C418.88 431.09 423.46 426.51 423.46 420.86C423.46 418.56 423.46 400.23 423.46 397.93C429.58 394.4 433.7 387.8 433.7 380.22C433.7 368.92 424.53 359.75 413.23 359.75C413.16 359.75 413.09 359.76 413.02 359.76Z" id="b4V5OODwh"></path></defs><g><g><g><use xlink:href="#amBty1neC" opacity="1" fill="#7e57c2" fill-opacity="1"></use><g><use xlink:href="#amBty1neC" opacity="1" fill-opacity="0" stroke="#000000" stroke-width="1" stroke-opacity="0"></use></g></g><g><use xlink:href="#f9E2rtXsT" opacity="1" fill="#311b92" fill-opacity="1"></use><g><use xlink:href="#f9E2rtXsT" opacity="1" fill-opacity="0" stroke="#000000" stroke-width="1" stroke-opacity="0"></use></g></g><g><use xlink:href="#e17ePFj6UM" opacity="1" fill="#2196f3" fill-opacity="1"></use><g><use xlink:href="#e17ePFj6UM" opacity="1" fill-opacity="0" stroke="#000000" stroke-width="1" stroke-opacity="0"></use></g></g><g><use xlink:href="#aLNFT1FU" opacity="1" fill="#1976d2" fill-opacity="1"></use><g><use xlink:href="#aLNFT1FU" opacity="1" fill-opacity="0" stroke="#000000" stroke-width="1" stroke-opacity="0"></use></g></g><g><use xlink:href="#a3LRR4hpO" opacity="1" fill="#2196f3" fill-opacity="1"></use><g><use xlink:href="#a3LRR4hpO" opacity="1" fill-opacity="0" stroke="#000000" stroke-width="1" stroke-opacity="0"></use></g></g><g><use xlink:href="#ink7NMkIF" opacity="1" fill="#1976d2" fill-opacity="1"></use><g><use xlink:href="#ink7NMkIF" opacity="1" fill-opacity="0" stroke="#000000" stroke-width="1" stroke-opacity="0"></use></g></g><g><use xlink:href="#aQfo5eRNr" opacity="1" fill="#eeeeee" fill-opacity="1"></use><g><use xlink:href="#aQfo5eRNr" opacity="1" fill-opacity="0" stroke="#000000" stroke-width="1" stroke-opacity="0"></use></g></g><g><use xlink:href="#avTX7Z7AK" opacity="1" fill="#bdbdbd" fill-opacity="1"></use><g><use xlink:href="#avTX7Z7AK" opacity="1" fill-opacity="0" stroke="#000000" stroke-width="1" stroke-opacity="0"></use></g></g><g><use xlink:href="#g2Ipn3mLZq" opacity="1" fill="#9e9e9e" fill-opacity="1"></use><g><use xlink:href="#g2Ipn3mLZq" opacity="1" fill-opacity="0" stroke="#000000" stroke-width="1" stroke-opacity="0"></use></g></g><g><use xlink:href="#b4oPglSHRA" opacity="1" fill="#616161" fill-opacity="1"></use><g><use xlink:href="#b4oPglSHRA" opacity="1" fill-opacity="0" stroke="#000000" stroke-width="1" stroke-opacity="0"></use></g></g><g><use xlink:href="#bn5wN21QA" opacity="1" fill="#eeeeee" fill-opacity="1"></use><g><use xlink:href="#bn5wN21QA" opacity="1" fill-opacity="0" stroke="#000000" stroke-width="1" stroke-opacity="0"></use></g></g><g><use xlink:href="#b4V5OODwh" opacity="1" fill="#bdbdbd" fill-opacity="1"></use><g><use xlink:href="#b4V5OODwh" opacity="1" fill-opacity="0" stroke="#000000" stroke-width="1" stroke-opacity="0"></use></g></g></g></g></svg>