<?xml version="1.0" encoding="UTF-8" standalone="no"?>
<!DOCTYPE svg PUBLIC "-//W3C//DTD SVG 1.1//EN" "http://www.w3.org/Graphics/SVG/1.1/DTD/svg11.dtd">
<svg version="1.1" xmlns="http://www.w3.org/2000/svg" xmlns:xlink="http://www.w3.org/1999/xlink" preserveAspectRatio="xMidYMid meet" viewBox="0 0 640 640" width="640" height="640"><defs><path d="M320 0C143.27 0 0 143.27 0 320C0 496.73 143.27 640 320 640C496.73 640 640 496.73 640 320C640 143.27 496.73 0 320 0Z" id="a1z75S4upU"></path><path d="M472.07 196.56C441.65 196.56 198.35 196.56 167.93 196.56C161.27 196.56 155.87 202.03 155.87 208.69C155.87 222.29 155.87 290.29 155.87 412.69L155.73 412.83L136.67 412.83L136.67 435.76C258.79 557.88 326.64 625.73 340.21 639.3C495.01 629.64 619.92 509.97 637.74 357.52C622.17 341.95 497.63 217.46 482.07 201.89C481.27 200.76 480.33 199.69 479.13 198.96C477.2 197.43 474.73 196.56 472.07 196.56Z" id="i2bdrswyWz"></path><path d="M503.33 412.81C503.33 412.81 503.33 412.81 503.33 412.81C503.33 426.59 503.33 434.25 503.33 435.78C503.33 435.78 503.33 435.78 503.33 435.78C283.33 435.78 161.11 435.78 136.67 435.78C136.67 435.78 136.67 435.78 136.67 435.78C136.67 422 136.67 414.34 136.67 412.81C136.67 412.81 136.67 412.81 136.67 412.81C356.67 412.81 478.89 412.81 503.33 412.81Z" id="a4glZkQlUc"></path><path d="M136.88 435.79L155.85 443.42L484.15 443.42L503.12 435.79L136.88 435.79Z" id="b4PHNGTMoD"></path><path d="M167.96 196.58C161.26 196.58 155.83 202.01 155.83 208.71C155.83 222.32 155.83 290.35 155.83 412.81L484.17 412.81C484.17 290.35 484.17 222.32 484.17 208.71C484.17 202.01 478.74 196.58 472.04 196.58C411.22 196.58 198.37 196.58 167.96 196.58Z" id="a1R4GXZy0O"></path><path d="M464.17 216.59C464.17 216.59 464.17 216.59 464.17 216.59C464.17 322.33 464.17 381.07 464.17 392.82C464.17 392.82 464.17 392.82 464.17 392.82C291.17 392.82 195.06 392.82 175.83 392.82C175.83 392.82 175.83 392.82 175.83 392.82C175.83 287.08 175.83 228.34 175.83 216.59C175.83 216.59 175.83 216.59 175.83 216.59C348.83 216.59 444.94 216.59 464.17 216.59Z" id="coB5fr6Un"></path><path d="M347.28 420.8C347.28 420.8 347.28 420.8 347.28 420.8C347.28 425.02 347.28 427.37 347.28 427.84C347.28 427.84 347.28 427.84 347.28 427.84C314.55 427.84 296.36 427.84 292.73 427.84C292.73 427.84 292.73 427.84 292.73 427.84C292.73 423.62 292.73 421.27 292.73 420.8C292.73 420.8 292.73 420.8 292.73 420.8C325.46 420.8 343.64 420.8 347.28 420.8Z" id="b1YQPvwKkL"></path><path d="M320 258.47C313.24 248.62 301.92 242.15 289.07 242.15C268.34 242.15 251.53 258.96 251.53 279.69C251.53 310.68 320 372.29 320 372.29C320 372.29 388.47 316.54 388.47 279.69C388.47 258.96 371.66 242.15 350.93 242.15C338.08 242.15 326.77 248.62 320 258.47Z" id="bCspkrbLp"></path></defs><g><g><g><use xlink:href="#a1z75S4upU" opacity="1" fill="#7e57c2" fill-opacity="1"></use><g><use xlink:href="#a1z75S4upU" opacity="1" fill-opacity="0" stroke="#000000" stroke-width="1" stroke-opacity="0"></use></g></g><g><use xlink:href="#i2bdrswyWz" opacity="1" fill="#311b92" fill-opacity="1"></use><g><use xlink:href="#i2bdrswyWz" opacity="1" fill-opacity="0" stroke="#000000" stroke-width="1" stroke-opacity="0"></use></g></g><g><use xlink:href="#a4glZkQlUc" opacity="1" fill="#9e9e9e" fill-opacity="1"></use><g><use xlink:href="#a4glZkQlUc" opacity="1" fill-opacity="0" stroke="#000000" stroke-width="1" stroke-opacity="0"></use></g></g><g><use xlink:href="#b4PHNGTMoD" opacity="1" fill="#616161" fill-opacity="1"></use><g><use xlink:href="#b4PHNGTMoD" opacity="1" fill-opacity="0" stroke="#000000" stroke-width="1" stroke-opacity="0"></use></g></g><g><use xlink:href="#a1R4GXZy0O" opacity="1" fill="#616161" fill-opacity="1"></use><g><use xlink:href="#a1R4GXZy0O" opacity="1" fill-opacity="0" stroke="#000000" stroke-width="1" stroke-opacity="0"></use></g></g><g><use xlink:href="#coB5fr6Un" opacity="1" fill="#ebf0f3" fill-opacity="1"></use><g><use xlink:href="#coB5fr6Un" opacity="1" fill-opacity="0" stroke="#000000" stroke-width="1" stroke-opacity="0"></use></g></g><g><use xlink:href="#b1YQPvwKkL" opacity="1" fill="#616161" fill-opacity="1"></use><g><use xlink:href="#b1YQPvwKkL" opacity="1" fill-opacity="0" stroke="#000000" stroke-width="1" stroke-opacity="0"></use></g></g><g><use xlink:href="#bCspkrbLp" opacity="1" fill="#2196f3" fill-opacity="1"></use><g><use xlink:href="#bCspkrbLp" opacity="1" fill-opacity="0" stroke="#000000" stroke-width="1" stroke-opacity="0"></use></g></g></g></g></svg>