<?xml version="1.0" encoding="UTF-8" standalone="no"?>
<!DOCTYPE svg PUBLIC "-//W3C//DTD SVG 1.1//EN" "http://www.w3.org/Graphics/SVG/1.1/DTD/svg11.dtd">
<svg version="1.1" xmlns="http://www.w3.org/2000/svg" xmlns:xlink="http://www.w3.org/1999/xlink" preserveAspectRatio="xMidYMid meet" viewBox="0 0 640 640" width="640" height="640"><defs><path d="M320 0C143.27 0 0 143.27 0 320C0 496.73 143.27 640 320 640C496.73 640 640 496.73 640 320C640 143.27 496.73 0 320 0Z" id="b7ImJyPKK6"></path><path d="M373.67 136.65C273.19 136.65 217.36 136.65 206.2 136.65C199.6 136.65 194.2 142.05 194.2 148.65C194.2 168.23 194.2 324.81 194.2 344.39C184.53 358.12 178.87 374.85 178.87 392.92C178.87 394.19 178.87 395.45 178.93 396.72C154.8 402.05 136.67 423.59 136.67 449.39C136.67 463.72 142.2 476.72 151.33 486.32C151.53 486.52 152.53 487.52 154.33 489.32C244.53 579.5 294.65 629.59 304.67 639.61C309.75 639.85 314.86 640 320 640C471.16 640 597.76 535.15 631.25 394.24C596.9 359.89 511.04 274.03 373.67 136.65Z" id="axoWQns8E"></path><path d="M206.21 136.67C199.58 136.67 194.2 142.04 194.2 148.67C194.2 179.13 194.2 422.78 194.2 453.24C194.2 459.86 199.58 465.24 206.21 465.24C228.96 465.24 411.04 465.24 433.8 465.24C440.42 465.24 445.8 459.87 445.8 453.24C445.8 436.94 445.8 355.47 445.8 208.81L373.65 136.67C273.18 136.67 217.37 136.67 206.21 136.67Z" id="g1vkM7ubyK"></path><path d="M373.65 196.81C373.65 203.44 379.03 208.81 385.66 208.81C389.67 208.81 409.71 208.81 445.8 208.81L373.65 136.67C373.65 172.75 373.65 192.8 373.65 196.81Z" id="a6qBK6nOxK"></path><path d="M449 395.4C445.6 362.28 417.61 336.44 383.59 336.44C366.06 336.44 350.17 343.35 338.38 354.54C324.4 327.23 296.01 308.52 263.23 308.52C216.63 308.52 178.86 346.3 178.86 392.9C178.86 394.17 178.9 395.43 178.95 396.69C154.77 402.03 136.67 423.57 136.67 449.36C136.67 479.17 160.83 503.33 190.64 503.33C216.51 503.33 423.49 503.33 449.36 503.33C479.17 503.33 503.33 479.17 503.33 449.36C503.33 419.55 479.17 395.38 449.36 395.38C449.24 395.38 449.12 395.4 449 395.4Z" id="a2TCR5ufNv"></path><path d="M313 362.36C313.43 363.18 315.53 367.3 319.32 374.71C325.36 368.98 328.71 365.8 329.38 365.16C330 364.58 330.67 364.06 331.31 363.51C331.09 363.08 329.35 359.68 329.14 359.26C316.4 334.36 291.15 318.9 263.23 318.9C255.5 318.9 248.05 320.1 241.04 322.31C243.04 322.14 245.05 322 247.1 322C275.02 322 300.27 337.46 313 362.36Z" id="f1f71aJWzn"></path><path d="M449.45 405.78L439.64 405.78C439.06 400.19 438.74 397.08 438.68 396.46C435.77 368.16 412.09 346.82 383.59 346.82C377.25 346.82 371.07 347.95 365.22 350.03C365.96 349.99 366.71 349.92 367.46 349.92C395.95 349.92 419.64 371.26 422.55 399.56C422.61 400.18 422.93 403.29 423.51 408.88L433.32 408.88C433.47 408.87 433.55 408.86 433.57 408.86C457.45 409.04 476.82 428.53 476.82 452.46C476.82 470.83 465.39 486.54 449.28 492.95C449.29 492.95 449.35 492.95 449.35 492.95C473.4 492.95 492.95 473.39 492.95 449.36C492.95 425.43 473.58 405.94 449.7 405.76C449.66 405.76 449.58 405.77 449.45 405.78Z" id="b1mwyokb0K"></path><path d="M350.62 174.53C350.62 174.53 350.62 174.53 350.62 174.53C350.62 182.53 350.62 186.98 350.62 187.87C350.62 187.87 350.62 187.87 350.62 187.87C269.65 187.87 224.66 187.87 215.67 187.87C215.67 187.87 215.67 187.87 215.67 187.87C215.67 179.87 215.67 175.42 215.67 174.53C215.67 174.53 215.67 174.53 215.67 174.53C296.64 174.53 341.62 174.53 350.62 174.53Z" id="c3MKbLoTMG"></path><path d="M424.4 223.41C424.4 223.41 424.4 223.41 424.4 223.41C424.4 231.41 424.4 235.85 424.4 236.74C424.4 236.74 424.4 236.74 424.4 236.74C299.16 236.74 229.58 236.74 215.67 236.74C215.67 236.74 215.67 236.74 215.67 236.74C215.67 228.74 215.67 224.3 215.67 223.41C215.67 223.41 215.67 223.41 215.67 223.41C340.91 223.41 410.48 223.41 424.4 223.41Z" id="ekZ8rwei4"></path><path d="M424.4 272.29C424.4 272.29 424.4 272.29 424.4 272.29C424.4 280.29 424.4 284.73 424.4 285.62C424.4 285.62 424.4 285.62 424.4 285.62C299.16 285.62 229.58 285.62 215.67 285.62C215.67 285.62 215.67 285.62 215.67 285.62C215.67 277.62 215.67 273.18 215.67 272.29C215.67 272.29 215.67 272.29 215.67 272.29C340.91 272.29 410.48 272.29 424.4 272.29Z" id="b1mdcoBHA9"></path></defs><g><g><g><use xlink:href="#b7ImJyPKK6" opacity="1" fill="#7e57c2" fill-opacity="1"></use><g><use xlink:href="#b7ImJyPKK6" opacity="1" fill-opacity="0" stroke="#000000" stroke-width="1" stroke-opacity="0"></use></g></g><g><use xlink:href="#axoWQns8E" opacity="1" fill="#311b92" fill-opacity="1"></use><g><use xlink:href="#axoWQns8E" opacity="1" fill-opacity="0" stroke="#000000" stroke-width="1" stroke-opacity="0"></use></g></g><g><use xlink:href="#g1vkM7ubyK" opacity="1" fill="#eeeeee" fill-opacity="1"></use><g><use xlink:href="#g1vkM7ubyK" opacity="1" fill-opacity="0" stroke="#000000" stroke-width="1" stroke-opacity="0"></use></g></g><g><use xlink:href="#a6qBK6nOxK" opacity="1" fill="#bdbdbd" fill-opacity="1"></use><g><use xlink:href="#a6qBK6nOxK" opacity="1" fill-opacity="0" stroke="#000000" stroke-width="1" stroke-opacity="0"></use></g></g><g><use xlink:href="#a2TCR5ufNv" opacity="1" fill="#2196f3" fill-opacity="1"></use><g><use xlink:href="#a2TCR5ufNv" opacity="1" fill-opacity="0" stroke="#000000" stroke-width="1" stroke-opacity="0"></use></g></g><g><use xlink:href="#f1f71aJWzn" opacity="1" fill="#1976d2" fill-opacity="1"></use><g><use xlink:href="#f1f71aJWzn" opacity="1" fill-opacity="0" stroke="#000000" stroke-width="1" stroke-opacity="0"></use></g></g><g><use xlink:href="#b1mwyokb0K" opacity="1" fill="#1976d2" fill-opacity="1"></use><g><use xlink:href="#b1mwyokb0K" opacity="1" fill-opacity="0" stroke="#000000" stroke-width="1" stroke-opacity="0"></use></g></g><g><use xlink:href="#c3MKbLoTMG" opacity="1" fill="#bdbdbd" fill-opacity="1"></use><g><use xlink:href="#c3MKbLoTMG" opacity="1" fill-opacity="0" stroke="#000000" stroke-width="1" stroke-opacity="0"></use></g></g><g><use xlink:href="#ekZ8rwei4" opacity="1" fill="#bdbdbd" fill-opacity="1"></use><g><use xlink:href="#ekZ8rwei4" opacity="1" fill-opacity="0" stroke="#000000" stroke-width="1" stroke-opacity="0"></use></g></g><g><use xlink:href="#b1mdcoBHA9" opacity="1" fill="#bdbdbd" fill-opacity="1"></use><g><use xlink:href="#b1mdcoBHA9" opacity="1" fill-opacity="0" stroke="#000000" stroke-width="1" stroke-opacity="0"></use></g></g></g></g></svg>