<?xml version="1.0" encoding="UTF-8" standalone="no"?>
<!DOCTYPE svg PUBLIC "-//W3C//DTD SVG 1.1//EN" "http://www.w3.org/Graphics/SVG/1.1/DTD/svg11.dtd">
<svg version="1.1" xmlns="http://www.w3.org/2000/svg" xmlns:xlink="http://www.w3.org/1999/xlink" preserveAspectRatio="xMidYMid meet" viewBox="0 0 640 640" width="640" height="640"><defs><path d="M320 0C143.27 0 0 143.27 0 320C0 496.73 143.27 640 320 640C496.73 640 640 496.73 640 320C640 143.27 496.73 0 320 0Z" id="a9ItG91uZA"></path><path d="M526.54 278.85L461.47 333.61L324.67 196.81L98.29 436.09C220.34 558.15 288.15 625.95 301.71 639.51C307.53 639.83 313.38 640 319.28 640C473.99 640 603.06 530.21 632.82 384.29C618.65 370.23 583.22 335.08 526.54 278.85Z" id="eeY2BOijr"></path><path d="M248.17 148.24C248.17 148.24 281.93 115.91 319.28 148.24C319.28 157.94 319.28 206.42 319.28 293.69L283.73 364.8L102 289.02C189.7 204.55 238.43 157.62 248.17 148.24Z" id="a2rFiZA3yA"></path><path d="M391.11 148.41C391.11 148.41 357.35 116.08 320 148.41C320 158.1 320 206.59 320 293.86L355.56 364.97L536.75 288.67C449.36 204.51 400.82 157.76 391.11 148.41Z" id="c1DZwHhY5a"></path><path d="M391.11 329.42C391.11 329.42 391.11 329.42 391.11 329.42C391.11 372.08 391.11 395.79 391.11 400.53C391.11 400.53 391.11 400.53 391.11 400.53C305.78 400.53 258.37 400.53 248.89 400.53C248.89 400.53 248.89 400.53 248.89 400.53C248.89 357.86 248.89 334.16 248.89 329.42C248.89 329.42 248.89 329.42 248.89 329.42C334.22 329.42 381.63 329.42 391.11 329.42Z" id="a1dZLGW7g9"></path><path d="M391.1 329.42C391.1 329.42 391.1 329.42 391.1 329.42C391.1 372.08 391.1 395.79 391.1 400.53C391.1 400.53 391.1 400.53 391.1 400.53C348.01 400.53 324.07 400.53 319.28 400.53C319.28 400.53 319.28 400.53 319.28 400.53C319.28 357.86 319.28 334.16 319.28 329.42C319.28 329.42 319.28 329.42 319.28 329.42C362.38 329.42 386.32 329.42 391.1 329.42Z" id="a4HhRDfRNL"></path><path d="M177.78 258.31C118.87 258.31 71.11 306.06 71.11 364.97C71.11 423.88 118.87 471.64 177.78 471.64C236.69 471.64 284.44 423.88 284.44 364.97C284.44 306.06 236.69 258.31 177.78 258.31Z" id="b1s37ftN2k"></path><path d="M177.78 293.86C138.5 293.86 106.67 325.7 106.67 364.97C106.67 404.25 138.5 436.08 177.78 436.08C217.05 436.08 248.89 404.25 248.89 364.97C248.89 325.7 217.05 293.86 177.78 293.86Z" id="c9CJQz8ekj"></path><path d="M462.22 258.31C403.31 258.31 355.56 306.06 355.56 364.97C355.56 423.88 403.31 471.64 462.22 471.64C521.13 471.64 568.89 423.88 568.89 364.97C568.89 306.06 521.13 258.31 462.22 258.31Z" id="a443EmzKpC"></path><path d="M462.22 293.69C422.95 293.69 391.11 325.53 391.11 364.8C391.11 404.08 422.95 435.92 462.22 435.92C501.5 435.92 533.33 404.08 533.33 364.8C533.33 325.53 501.5 293.69 462.22 293.69Z" id="ajm7ZeE4i"></path><path d="M320 350.44C310.18 350.44 302.22 342.48 302.22 332.66C302.22 314.56 302.22 169.75 302.22 151.65C302.22 141.83 310.18 133.87 320 133.87C320 133.87 320 133.87 320 133.87C329.82 133.87 337.78 141.83 337.78 151.65C337.78 169.75 337.78 314.56 337.78 332.66C337.78 342.48 329.82 350.44 320 350.44C320 350.44 320 350.44 320 350.44Z" id="dCKaZAh8"></path><path d="M319.28 133.91C319.28 155.56 319.28 328.75 319.28 350.4C319.52 350.41 319.76 350.44 320 350.44C329.82 350.44 337.78 342.48 337.78 332.66C337.78 314.56 337.78 169.75 337.78 151.65C337.78 141.83 329.82 133.87 320 133.87C319.76 133.87 319.52 133.9 319.28 133.91Z" id="b1yvkAPTA1"></path><path d="M320 306.79C297.98 306.79 280.14 324.64 280.14 346.66C280.14 368.67 297.98 386.52 320 386.52C342.02 386.52 359.87 368.67 359.87 346.66C359.87 324.64 342.02 306.79 320 306.79Z" id="auf7CcKKG"></path><path d="M319.28 306.83C319.28 314.79 319.28 378.52 319.28 386.49C319.52 386.49 319.76 386.52 320 386.52C342.02 386.52 359.87 368.67 359.87 346.66C359.87 324.64 342.02 306.79 320 306.79C319.76 306.79 319.52 306.82 319.28 306.83Z" id="bzcqQEKO"></path></defs><g><g><g><use xlink:href="#a9ItG91uZA" opacity="1" fill="#7e57c2" fill-opacity="1"></use><g><use xlink:href="#a9ItG91uZA" opacity="1" fill-opacity="0" stroke="#000000" stroke-width="1" stroke-opacity="0"></use></g></g><g><use xlink:href="#eeY2BOijr" opacity="1" fill="#311b92" fill-opacity="1"></use><g><use xlink:href="#eeY2BOijr" opacity="1" fill-opacity="0" stroke="#000000" stroke-width="1" stroke-opacity="0"></use></g></g><g><use xlink:href="#a2rFiZA3yA" opacity="1" fill="#2196f3" fill-opacity="1"></use><g><use xlink:href="#a2rFiZA3yA" opacity="1" fill-opacity="0" stroke="#000000" stroke-width="1" stroke-opacity="0"></use></g></g><g><use xlink:href="#c1DZwHhY5a" opacity="1" fill="#1976d2" fill-opacity="1"></use><g><use xlink:href="#c1DZwHhY5a" opacity="1" fill-opacity="0" stroke="#000000" stroke-width="1" stroke-opacity="0"></use></g></g><g><use xlink:href="#a1dZLGW7g9" opacity="1" fill="#2196f3" fill-opacity="1"></use><g><use xlink:href="#a1dZLGW7g9" opacity="1" fill-opacity="0" stroke="#000000" stroke-width="1" stroke-opacity="0"></use></g></g><g><use xlink:href="#a4HhRDfRNL" opacity="1" fill="#1976d2" fill-opacity="1"></use><g><use xlink:href="#a4HhRDfRNL" opacity="1" fill-opacity="0" stroke="#000000" stroke-width="1" stroke-opacity="0"></use></g></g><g><use xlink:href="#b1s37ftN2k" opacity="1" fill="#9e9e9e" fill-opacity="1"></use><g><use xlink:href="#b1s37ftN2k" opacity="1" fill-opacity="0" stroke="#000000" stroke-width="1" stroke-opacity="0"></use></g></g><g><use xlink:href="#c9CJQz8ekj" opacity="1" fill="#eeeeee" fill-opacity="1"></use><g><use xlink:href="#c9CJQz8ekj" opacity="1" fill-opacity="0" stroke="#000000" stroke-width="1" stroke-opacity="0"></use></g></g><g><use xlink:href="#a443EmzKpC" opacity="1" fill="#616161" fill-opacity="1"></use><g><use xlink:href="#a443EmzKpC" opacity="1" fill-opacity="0" stroke="#000000" stroke-width="1" stroke-opacity="0"></use></g></g><g><use xlink:href="#ajm7ZeE4i" opacity="1" fill="#bdbdbd" fill-opacity="1"></use><g><use xlink:href="#ajm7ZeE4i" opacity="1" fill-opacity="0" stroke="#000000" stroke-width="1" stroke-opacity="0"></use></g></g><g><use xlink:href="#dCKaZAh8" opacity="1" fill="#9e9e9e" fill-opacity="1"></use><g><use xlink:href="#dCKaZAh8" opacity="1" fill-opacity="0" stroke="#000000" stroke-width="1" stroke-opacity="0"></use></g></g><g><use xlink:href="#b1yvkAPTA1" opacity="1" fill="#616161" fill-opacity="1"></use><g><use xlink:href="#b1yvkAPTA1" opacity="1" fill-opacity="0" stroke="#000000" stroke-width="1" stroke-opacity="0"></use></g></g><g><use xlink:href="#auf7CcKKG" opacity="1" fill="#eeeeee" fill-opacity="1"></use><g><use xlink:href="#auf7CcKKG" opacity="1" fill-opacity="0" stroke="#000000" stroke-width="1" stroke-opacity="0"></use></g></g><g><use xlink:href="#bzcqQEKO" opacity="1" fill="#bdbdbd" fill-opacity="1"></use><g><use xlink:href="#bzcqQEKO" opacity="1" fill-opacity="0" stroke="#000000" stroke-width="1" stroke-opacity="0"></use></g></g></g></g></svg>