<?xml version="1.0" encoding="UTF-8" standalone="no"?>
<!DOCTYPE svg PUBLIC "-//W3C//DTD SVG 1.1//EN" "http://www.w3.org/Graphics/SVG/1.1/DTD/svg11.dtd">
<svg version="1.1" xmlns="http://www.w3.org/2000/svg" xmlns:xlink="http://www.w3.org/1999/xlink" preserveAspectRatio="xMidYMid meet" viewBox="0 0 640 640" width="640" height="640"><defs><path d="M320 0C143.27 0 0 143.27 0 320C0 496.73 143.27 640 320 640C496.73 640 640 496.73 640 320C640 143.27 496.73 0 320 0Z" id="bvCRGFjgW"></path><path d="M639.55 303.08C630.64 294.16 586.07 249.59 505.85 169.37L251.76 334.37L132.59 428.34C259.07 554.82 329.34 625.09 343.39 639.15C509.2 627.17 640 488.86 640 320C640 314.32 639.85 308.68 639.55 303.08Z" id="oxMVJRJ60"></path><path d="M377.21 407.7C377.21 407.7 377.21 407.7 377.21 407.7C377.21 453.47 377.21 478.9 377.21 483.99C377.21 483.99 377.21 483.99 377.21 483.99C308.56 483.99 270.42 483.99 262.79 483.99C262.79 483.99 262.79 483.99 262.79 483.99C262.79 438.22 262.79 412.79 262.79 407.7C262.79 407.7 262.79 407.7 262.79 407.7C331.44 407.7 369.58 407.7 377.21 407.7Z" id="bmqhttYm3"></path><path d="M377.22 407.7C377.22 407.7 377.22 407.7 377.22 407.7C377.22 453.47 377.22 478.9 377.22 483.99C377.22 483.99 377.22 483.99 377.22 483.99C342.78 483.99 323.65 483.99 319.83 483.99C319.83 483.99 319.83 483.99 319.83 483.99C319.83 438.22 319.83 412.79 319.83 407.7C319.83 407.7 319.83 407.7 319.83 407.7C354.26 407.7 373.39 407.7 377.22 407.7Z" id="b1bd1TBAV9"></path><path d="M142.97 433.13C135.42 433.13 129.29 427.01 129.29 419.45C129.29 395.49 129.29 203.78 129.29 179.82C129.29 172.27 135.42 166.14 142.97 166.14C178.38 166.14 461.62 166.14 497.03 166.14C504.58 166.14 510.71 172.27 510.71 179.82C510.71 203.78 510.71 395.49 510.71 419.45C510.71 427.01 504.59 433.13 497.03 433.13C426.22 433.13 178.38 433.13 142.97 433.13Z" id="c5uYlQA13i"></path><path d="M319.82 166.14L319.82 433.13C426.15 433.13 485.22 433.13 497.03 433.13C504.58 433.13 510.71 427.01 510.71 419.45C510.71 395.49 510.71 203.78 510.71 179.82C510.71 172.26 504.59 166.14 497.03 166.14C473.4 166.14 414.34 166.14 319.82 166.14Z" id="b12vDhbcUj"></path><path d="M494.52 181.74C494.52 181.74 494.52 181.74 494.52 181.74C494.52 323.21 494.52 401.81 494.52 417.53C494.52 417.53 494.52 417.53 494.52 417.53C285.1 417.53 168.75 417.53 145.48 417.53C145.48 417.53 145.48 417.53 145.48 417.53C145.48 276.06 145.48 197.46 145.48 181.74C145.48 181.74 145.48 181.74 145.48 181.74C354.9 181.74 471.25 181.74 494.52 181.74Z" id="g2kIK7HkWL"></path><path d="M494.52 181.74C494.52 181.74 494.52 181.74 494.52 181.74C494.52 323.21 494.52 401.81 494.52 417.53C494.52 417.53 494.52 417.53 494.52 417.53C389.71 417.53 331.47 417.53 319.83 417.53C319.83 417.53 319.83 417.53 319.83 417.53C319.83 276.06 319.83 197.46 319.83 181.74C319.83 181.74 319.83 181.74 319.83 181.74C424.65 181.74 482.88 181.74 494.52 181.74Z" id="gjteNNlDS"></path><path d="M210.39 307.07L272.2 245.27L285.91 258.98L237.82 307.07L285.91 355.16L272.2 368.88L210.39 307.07Z" id="aPkrCdL8T"></path><path d="M348.7 355.16L396.79 307.07L348.7 258.98L362.41 245.27L424.22 307.07L362.41 368.88L348.7 355.16Z" id="aeWKfdmQv"></path><path d="M319.82 249.14L319.82 331.09L339.36 250.86L320.52 246.27L319.82 249.14Z" id="a3jcPjRFXf"></path><path d="M310.86 367.87L319.82 331.09L319.82 249.14L292.02 363.28L310.86 367.87Z" id="a5yy1U7g"></path><path d="M396.28 471.27C396.28 471.27 396.28 471.27 396.28 471.27C396.28 494.16 396.28 506.87 396.28 509.41C396.28 509.41 396.28 509.41 396.28 509.41C304.74 509.41 253.89 509.41 243.72 509.41C243.72 509.41 243.72 509.41 243.72 509.41C243.72 486.53 243.72 473.82 243.72 471.27C243.72 471.27 243.72 471.27 243.72 471.27C335.26 471.27 386.11 471.27 396.28 471.27Z" id="aDUeRdo5N"></path><path d="M396.29 471.27C396.29 471.27 396.29 471.27 396.29 471.27C396.29 494.16 396.29 506.87 396.29 509.41C396.29 509.41 396.29 509.41 396.29 509.41C350.41 509.41 324.92 509.41 319.83 509.41C319.83 509.41 319.83 509.41 319.83 509.41C319.83 486.53 319.83 473.82 319.83 471.27C319.83 471.27 319.83 471.27 319.83 471.27C365.7 471.27 391.19 471.27 396.29 471.27Z" id="c2WZYoKrnx"></path></defs><g><g><g><use xlink:href="#bvCRGFjgW" opacity="1" fill="#7e57c2" fill-opacity="1"></use><g><use xlink:href="#bvCRGFjgW" opacity="1" fill-opacity="0" stroke="#000000" stroke-width="1" stroke-opacity="0"></use></g></g><g><use xlink:href="#oxMVJRJ60" opacity="1" fill="#311b92" fill-opacity="1"></use><g><use xlink:href="#oxMVJRJ60" opacity="1" fill-opacity="0" stroke="#000000" stroke-width="1" stroke-opacity="0"></use></g></g><g><use xlink:href="#bmqhttYm3" opacity="1" fill="#9e9e9e" fill-opacity="1"></use><g><use xlink:href="#bmqhttYm3" opacity="1" fill-opacity="0" stroke="#000000" stroke-width="1" stroke-opacity="0"></use></g></g><g><use xlink:href="#b1bd1TBAV9" opacity="1" fill="#616161" fill-opacity="1"></use><g><use xlink:href="#b1bd1TBAV9" opacity="1" fill-opacity="0" stroke="#000000" stroke-width="1" stroke-opacity="0"></use></g></g><g><use xlink:href="#c5uYlQA13i" opacity="1" fill="#eeeeee" fill-opacity="1"></use><g><use xlink:href="#c5uYlQA13i" opacity="1" fill-opacity="0" stroke="#000000" stroke-width="1" stroke-opacity="0"></use></g></g><g><use xlink:href="#b12vDhbcUj" opacity="1" fill="#bdbdbd" fill-opacity="1"></use><g><use xlink:href="#b12vDhbcUj" opacity="1" fill-opacity="0" stroke="#000000" stroke-width="1" stroke-opacity="0"></use></g></g><g><use xlink:href="#g2kIK7HkWL" opacity="1" fill="#2196f3" fill-opacity="1"></use><g><use xlink:href="#g2kIK7HkWL" opacity="1" fill-opacity="0" stroke="#000000" stroke-width="1" stroke-opacity="0"></use></g></g><g><use xlink:href="#gjteNNlDS" opacity="1" fill="#1976d2" fill-opacity="1"></use><g><use xlink:href="#gjteNNlDS" opacity="1" fill-opacity="0" stroke="#000000" stroke-width="1" stroke-opacity="0"></use></g></g><g><use xlink:href="#aPkrCdL8T" opacity="1" fill="#eeeeee" fill-opacity="1"></use><g><use xlink:href="#aPkrCdL8T" opacity="1" fill-opacity="0" stroke="#000000" stroke-width="1" stroke-opacity="0"></use></g></g><g><use xlink:href="#aeWKfdmQv" opacity="1" fill="#bdbdbd" fill-opacity="1"></use><g><use xlink:href="#aeWKfdmQv" opacity="1" fill-opacity="0" stroke="#000000" stroke-width="1" stroke-opacity="0"></use></g></g><g><use xlink:href="#a3jcPjRFXf" opacity="1" fill="#bdbdbd" fill-opacity="1"></use><g><use xlink:href="#a3jcPjRFXf" opacity="1" fill-opacity="0" stroke="#000000" stroke-width="1" stroke-opacity="0"></use></g></g><g><use xlink:href="#a5yy1U7g" opacity="1" fill="#eeeeee" fill-opacity="1"></use><g><use xlink:href="#a5yy1U7g" opacity="1" fill-opacity="0" stroke="#000000" stroke-width="1" stroke-opacity="0"></use></g></g><g><use xlink:href="#aDUeRdo5N" opacity="1" fill="#eeeeee" fill-opacity="1"></use><g><use xlink:href="#aDUeRdo5N" opacity="1" fill-opacity="0" stroke="#000000" stroke-width="1" stroke-opacity="0"></use></g></g><g><use xlink:href="#c2WZYoKrnx" opacity="1" fill="#bdbdbd" fill-opacity="1"></use><g><use xlink:href="#c2WZYoKrnx" opacity="1" fill-opacity="0" stroke="#bdbdbd" stroke-width="1" stroke-opacity="0"></use></g></g></g></g></svg>