<?xml version="1.0" encoding="UTF-8" standalone="no"?>
<!DOCTYPE svg PUBLIC "-//W3C//DTD SVG 1.1//EN" "http://www.w3.org/Graphics/SVG/1.1/DTD/svg11.dtd">
<svg version="1.1" xmlns="http://www.w3.org/2000/svg" xmlns:xlink="http://www.w3.org/1999/xlink" preserveAspectRatio="xMidYMid meet" viewBox="0 0 640 640" width="640" height="640"><defs><path d="M320 0C143.27 0 0 143.27 0 320C0 496.73 143.27 640 320 640C496.73 640 640 496.73 640 320C640 143.27 496.73 0 320 0Z" id="d8vd8EAZb"></path><path d="M433.4 207.19C431.64 205.39 430.66 204.39 430.47 204.19C417.4 191.72 399.67 183.99 380.13 183.99C368.6 183.99 357.73 186.65 348.07 191.45C346.63 190.02 335.17 178.55 333.73 177.12C317.93 162.52 296.93 153.65 273.87 153.65C225.13 153.65 185.67 193.12 185.67 241.85C185.67 246.32 186.07 250.72 186.73 254.99C158.47 258.79 136.67 282.99 136.67 312.32C136.67 325.12 140.87 336.92 147.93 346.52C147.94 346.53 147.99 346.58 148 346.59C151.6 351.39 155.8 355.65 160.6 359.19C162.22 360.8 170.31 368.89 184.87 383.45L176.67 391.65L200.87 415.85L200.87 481.79C294.48 575.41 346.49 627.42 356.9 637.82C488.42 622.71 595.65 527.91 629.1 402.89C603.01 376.79 537.77 311.56 433.4 207.19Z" id="a2Kvxwhu5M"></path><path d="M492.63 234.19C488.59 194.9 455.4 164.26 415.04 164.26C394.24 164.26 375.39 172.45 361.41 185.72C344.84 153.33 311.16 131.14 272.27 131.14C217 131.14 172.19 175.95 172.19 231.23C172.19 232.73 172.24 234.23 172.3 235.72C143.62 242.06 122.14 267.6 122.14 298.2C122.14 333.56 150.81 362.22 186.17 362.22C216.86 362.22 462.36 362.22 493.05 362.22C528.41 362.22 557.08 333.56 557.08 298.2C557.08 262.84 528.41 234.17 493.05 234.17C492.91 234.17 492.77 234.19 492.63 234.19Z" id="c2yAdVGDHY"></path><path d="M331.31 195.02C331.81 196 334.31 200.88 338.8 209.66C345.97 202.87 349.95 199.1 350.74 198.34C351.48 197.65 352.26 197.03 353.02 196.38C352.76 195.87 350.7 191.84 350.45 191.34C335.34 161.81 305.39 143.47 272.27 143.47C263.1 143.47 254.27 144.89 245.95 147.51C248.33 147.32 250.71 147.15 253.14 147.15C286.25 147.15 316.2 165.49 331.31 195.02Z" id="aRrXvyWxH"></path><path d="M493.16 246.5L481.53 246.5C480.84 239.87 480.46 236.19 480.39 235.45C476.93 201.88 448.84 176.57 415.04 176.57C407.52 176.57 400.19 177.92 393.25 180.37C394.13 180.34 395.01 180.25 395.9 180.25C429.71 180.25 457.8 205.56 461.25 239.13C461.33 239.87 461.71 243.55 462.39 250.18L474.03 250.18C474.2 250.17 474.3 250.16 474.32 250.16C502.65 250.37 525.63 273.49 525.63 301.88C525.63 323.66 512.07 342.3 492.96 349.91C492.97 349.91 493.04 349.91 493.05 349.91C521.56 349.91 544.76 326.71 544.76 298.2C544.76 269.81 521.79 246.7 493.45 246.48C493.41 246.48 493.32 246.49 493.16 246.5Z" id="dxMCW1Pi"></path><path d="M228.76 339.57L176.68 391.64L200.89 391.64L200.89 470.76L256.62 470.76L256.62 391.64L280.83 391.64L228.76 339.57Z" id="a32fGiEsgs"></path><path d="M439.89 350.21L439.89 339.57L385.95 339.57L385.95 350.21L385.95 426.79L362.53 426.79L412.92 477.18L463.32 426.79L439.89 426.79L439.89 350.21Z" id="b3ifd95j4"></path></defs><g><g><g><use xlink:href="#d8vd8EAZb" opacity="1" fill="#7e57c2" fill-opacity="1"></use><g><use xlink:href="#d8vd8EAZb" opacity="1" fill-opacity="0" stroke="#000000" stroke-width="1" stroke-opacity="0"></use></g></g><g><use xlink:href="#a2Kvxwhu5M" opacity="1" fill="#311b92" fill-opacity="1"></use><g><use xlink:href="#a2Kvxwhu5M" opacity="1" fill-opacity="0" stroke="#000000" stroke-width="1" stroke-opacity="0"></use></g></g><g><use xlink:href="#c2yAdVGDHY" opacity="1" fill="#2196f3" fill-opacity="1"></use><g><use xlink:href="#c2yAdVGDHY" opacity="1" fill-opacity="0" stroke="#000000" stroke-width="1" stroke-opacity="0"></use></g></g><g><use xlink:href="#aRrXvyWxH" opacity="1" fill="#1976d2" fill-opacity="1"></use><g><use xlink:href="#aRrXvyWxH" opacity="1" fill-opacity="0" stroke="#000000" stroke-width="1" stroke-opacity="0"></use></g></g><g><use xlink:href="#dxMCW1Pi" opacity="1" fill="#1976d2" fill-opacity="1"></use><g><use xlink:href="#dxMCW1Pi" opacity="1" fill-opacity="0" stroke="#000000" stroke-width="1" stroke-opacity="0"></use></g></g><g><use xlink:href="#a32fGiEsgs" opacity="1" fill="#eeeeee" fill-opacity="1"></use><g><use xlink:href="#a32fGiEsgs" opacity="1" fill-opacity="0" stroke="#000000" stroke-width="1" stroke-opacity="0"></use></g></g><g><use xlink:href="#b3ifd95j4" opacity="1" fill="#bdbdbd" fill-opacity="1"></use><g><use xlink:href="#b3ifd95j4" opacity="1" fill-opacity="0" stroke="#000000" stroke-width="1" stroke-opacity="0"></use></g></g></g></g></svg>