<?xml version="1.0" encoding="UTF-8" standalone="no"?>
<!DOCTYPE svg PUBLIC "-//W3C//DTD SVG 1.1//EN" "http://www.w3.org/Graphics/SVG/1.1/DTD/svg11.dtd">
<svg version="1.1" xmlns="http://www.w3.org/2000/svg" xmlns:xlink="http://www.w3.org/1999/xlink" preserveAspectRatio="xMidYMid meet" viewBox="0 0 640 640" width="640" height="640"><defs><path d="M320 0C143.27 0 0 143.27 0 320C0 496.73 143.27 640 320 640C496.73 640 640 496.73 640 320C640 143.27 496.73 0 320 0Z" id="b1mvtFTK3o"></path><path d="M490.85 200.3L207.9 367.46L147.08 437.63C267.75 558.3 334.78 625.34 348.19 638.75C502.42 625.28 625.28 502.43 638.75 348.2C619.03 328.48 569.73 279.18 490.85 200.3Z" id="ajw6wSvUS"></path><path d="M161.98 444.45C151.07 444.45 142.22 435.6 142.22 424.69C142.22 403.75 142.22 236.25 142.22 215.31C142.22 204.4 151.07 195.56 161.98 195.56C193.58 195.56 446.42 195.56 478.03 195.56C488.94 195.56 497.78 204.4 497.78 215.31C497.78 236.25 497.78 403.75 497.78 424.69C497.78 435.6 488.93 444.45 478.03 444.45C414.82 444.45 193.58 444.45 161.98 444.45Z" id="ciIGBvlB2"></path><path d="M319.28 195.55L319.28 444.44C414.53 444.44 467.44 444.44 478.03 444.44C488.94 444.44 497.78 435.6 497.78 424.69C497.78 403.75 497.78 236.25 497.78 215.31C497.78 204.4 488.93 195.55 478.03 195.55C456.86 195.55 403.95 195.55 319.28 195.55Z" id="a2AbN4AJcU"></path><path d="M497.78 232.73C497.78 232.73 497.78 232.73 497.78 232.73C497.78 265.05 497.78 283.01 497.78 286.6C497.78 286.6 497.78 286.6 497.78 286.6C284.44 286.6 165.93 286.6 142.22 286.6C142.22 286.6 142.22 286.6 142.22 286.6C142.22 254.28 142.22 236.32 142.22 232.73C142.22 232.73 142.22 232.73 142.22 232.73C355.56 232.73 474.07 232.73 497.78 232.73Z" id="b4CFN1aZCz"></path><path d="M497.78 232.73C497.78 232.73 497.78 232.73 497.78 232.73C497.78 265.05 497.78 283.01 497.78 286.6C497.78 286.6 497.78 286.6 497.78 286.6C390.68 286.6 331.19 286.6 319.29 286.6C319.29 286.6 319.29 286.6 319.29 286.6C319.29 254.28 319.29 236.32 319.29 232.73C319.29 232.73 319.29 232.73 319.29 232.73C426.38 232.73 485.88 232.73 497.78 232.73Z" id="a4icKbhq0u"></path><path d="M320 355.56C320 355.56 320 355.56 320 355.56C320 376.89 320 388.74 320 391.11C320 391.11 320 391.11 320 391.11C234.67 391.11 187.26 391.11 177.78 391.11C177.78 391.11 177.78 391.11 177.78 391.11C177.78 369.78 177.78 357.93 177.78 355.56C177.78 355.56 177.78 355.56 177.78 355.56C263.11 355.56 310.52 355.56 320 355.56Z" id="chaUvuDrv"></path></defs><g><g><g><use xlink:href="#b1mvtFTK3o" opacity="1" fill="#7e57c2" fill-opacity="1"></use><g><use xlink:href="#b1mvtFTK3o" opacity="1" fill-opacity="0" stroke="#000000" stroke-width="1" stroke-opacity="0"></use></g></g><g><use xlink:href="#ajw6wSvUS" opacity="1" fill="#311b92" fill-opacity="1"></use><g><use xlink:href="#ajw6wSvUS" opacity="1" fill-opacity="0" stroke="#000000" stroke-width="1" stroke-opacity="0"></use></g></g><g><use xlink:href="#ciIGBvlB2" opacity="1" fill="#2196f3" fill-opacity="1"></use><g><use xlink:href="#ciIGBvlB2" opacity="1" fill-opacity="0" stroke="#000000" stroke-width="1" stroke-opacity="0"></use></g></g><g><use xlink:href="#a2AbN4AJcU" opacity="1" fill="#1976d2" fill-opacity="1"></use><g><use xlink:href="#a2AbN4AJcU" opacity="1" fill-opacity="0" stroke="#000000" stroke-width="1" stroke-opacity="0"></use></g></g><g><use xlink:href="#b4CFN1aZCz" opacity="1" fill="#9e9e9e" fill-opacity="1"></use><g><use xlink:href="#b4CFN1aZCz" opacity="1" fill-opacity="0" stroke="#000000" stroke-width="1" stroke-opacity="0"></use></g></g><g><use xlink:href="#a4icKbhq0u" opacity="1" fill="#616161" fill-opacity="1"></use><g><use xlink:href="#a4icKbhq0u" opacity="1" fill-opacity="0" stroke="#000000" stroke-width="1" stroke-opacity="0"></use></g></g><g><use xlink:href="#chaUvuDrv" opacity="1" fill="#eeeeee" fill-opacity="1"></use><g><use xlink:href="#chaUvuDrv" opacity="1" fill-opacity="0" stroke="#000000" stroke-width="1" stroke-opacity="0"></use></g></g></g></g></svg>