<?xml version="1.0" encoding="UTF-8" standalone="no"?>
<!DOCTYPE svg PUBLIC "-//W3C//DTD SVG 1.1//EN" "http://www.w3.org/Graphics/SVG/1.1/DTD/svg11.dtd">
<svg version="1.1" xmlns="http://www.w3.org/2000/svg" xmlns:xlink="http://www.w3.org/1999/xlink" preserveAspectRatio="xMidYMid meet" viewBox="0 0 640 640" width="640" height="640"><defs><path d="M320 0C143.27 0 0 143.27 0 320C0 496.73 143.27 640 320 640C496.73 640 640 496.73 640 320C640 143.27 496.73 0 320 0Z" id="a1wL8ytFq"></path><path d="M278.6 261.16C278.45 261.01 277.72 260.28 276.4 258.96L276.33 258.83C275.29 257.83 274.71 257.27 274.6 257.16C273 255.83 270.87 255.03 268.67 255.03C256.43 255.03 158.51 255.03 146.27 255.03C140.93 255.03 136.67 259.29 136.67 264.63C136.67 275.7 136.67 364.29 136.67 375.36C136.67 378.03 137.73 380.43 139.46 382.16C164.48 407.18 364.6 607.3 389.62 632.31C526.26 601.99 629.97 484.36 639.24 340.94C627.18 328.88 566.88 268.57 458.33 160.03L429.13 160.03C392.69 210.43 342.51 244.14 278.6 261.16Z" id="chp2b29XJ"></path><path d="M456.46 366.82C482.35 366.82 503.33 345.86 503.33 320C503.33 294.14 482.35 273.18 456.46 273.18C456.46 291.91 456.46 357.46 456.46 366.82Z" id="a81tZhIiy"></path><path d="M458.35 160C458.35 160 458.35 160 458.35 160C458.35 352 458.35 458.67 458.35 480C458.35 480 458.35 480 458.35 480C440.82 480 431.08 480 429.13 480C429.13 480 429.13 480 429.13 480C429.13 288 429.13 181.33 429.13 160C429.13 160 429.13 160 429.13 160C446.66 160 456.4 160 458.35 160Z" id="f7HBoijSND"></path><path d="M429.12 479.99C429.12 479.99 371 399.56 269.46 376.47C269.46 365.17 269.46 274.82 269.46 263.52C371 240.43 429.12 160 429.12 160C429.12 224 429.12 447.99 429.12 479.99Z" id="g2is9TZLe0"></path><path d="M146.27 255.02C140.97 255.02 136.67 259.32 136.67 264.62C136.67 275.69 136.67 364.3 136.67 375.37C136.67 380.67 140.97 384.97 146.27 384.97C158.51 384.97 256.4 384.97 268.64 384.97C273.95 384.97 278.25 380.67 278.25 375.37C278.25 364.3 278.25 275.69 278.25 264.62C278.25 259.32 273.95 255.02 268.64 255.02C244.17 255.02 158.51 255.02 146.27 255.02Z" id="dpQ3yV0mp"></path></defs><g><g><g><use xlink:href="#a1wL8ytFq" opacity="1" fill="#7e57c2" fill-opacity="1"></use><g><use xlink:href="#a1wL8ytFq" opacity="1" fill-opacity="0" stroke="#000000" stroke-width="1" stroke-opacity="0"></use></g></g><g><use xlink:href="#chp2b29XJ" opacity="1" fill="#311b92" fill-opacity="1"></use><g><use xlink:href="#chp2b29XJ" opacity="1" fill-opacity="0" stroke="#000000" stroke-width="1" stroke-opacity="0"></use></g></g><g><use xlink:href="#a81tZhIiy" opacity="1" fill="#eeeeee" fill-opacity="1"></use><g><use xlink:href="#a81tZhIiy" opacity="1" fill-opacity="0" stroke="#000000" stroke-width="1" stroke-opacity="0"></use></g></g><g><use xlink:href="#f7HBoijSND" opacity="1" fill="#9e9e9e" fill-opacity="1"></use><g><use xlink:href="#f7HBoijSND" opacity="1" fill-opacity="0" stroke="#000000" stroke-width="1" stroke-opacity="0"></use></g></g><g><use xlink:href="#g2is9TZLe0" opacity="1" fill="#eeeeee" fill-opacity="1"></use><g><use xlink:href="#g2is9TZLe0" opacity="1" fill-opacity="0" stroke="#000000" stroke-width="1" stroke-opacity="0"></use></g></g><g><use xlink:href="#dpQ3yV0mp" opacity="1" fill="#2196f3" fill-opacity="1"></use><g><use xlink:href="#dpQ3yV0mp" opacity="1" fill-opacity="0" stroke="#000000" stroke-width="1" stroke-opacity="0"></use></g></g></g></g></svg>