<?xml version="1.0" encoding="UTF-8" standalone="no"?>
<!DOCTYPE svg PUBLIC "-//W3C//DTD SVG 1.1//EN" "http://www.w3.org/Graphics/SVG/1.1/DTD/svg11.dtd">
<svg version="1.1" xmlns="http://www.w3.org/2000/svg" xmlns:xlink="http://www.w3.org/1999/xlink" preserveAspectRatio="xMidYMid meet" viewBox="0 0 640 640" width="640" height="640"><defs><path d="M320 0C143.27 0 0 143.27 0 320C0 496.73 143.27 640 320 640C496.73 640 640 496.73 640 320C640 143.27 496.73 0 320 0Z" id="b1cHIlukMX"></path><path d="M471.66 186.69L347.45 393.77L286.73 331.98L169.1 489.58C259.34 579.83 309.48 629.97 319.51 639.99C319.67 639.99 319.83 640 320 640C485.47 640 621.6 514.41 638.28 353.35C616.06 331.13 560.52 275.58 471.66 186.69Z" id="aov55QVP"></path><path d="M450.16 497.78C466.94 497.78 480.54 484.18 480.54 467.4C480.54 441.48 480.54 234.08 480.54 208.15C480.54 191.38 466.94 177.78 450.16 177.78C424.13 177.78 215.87 177.78 189.84 177.78C173.06 177.78 159.46 191.38 159.46 208.15C159.46 234.08 159.46 441.48 159.46 467.4C159.46 484.18 173.06 497.78 189.84 497.78C241.9 497.78 424.13 497.78 450.16 497.78Z" id="j2LT12Kzg3"></path><path d="M319.28 177.78L319.28 497.78C397.81 497.78 441.44 497.78 450.16 497.78C466.94 497.78 480.54 484.18 480.54 467.4C480.54 441.48 480.54 234.08 480.54 208.15C480.54 191.38 466.94 177.78 450.16 177.78C432.71 177.78 389.09 177.78 319.28 177.78Z" id="d14UWMxCQr"></path><path d="M259.84 280.85C253.62 282.71 247.04 279.33 244.85 273.23C239.58 258.61 234.32 243.99 229.06 229.38C226.67 222.75 230.36 215.52 237.09 213.44C291.1 196.77 348.9 196.77 402.91 213.44C409.64 215.52 413.33 222.75 410.94 229.38C405.68 243.99 400.42 258.61 395.15 273.23C392.96 279.33 386.38 282.71 380.16 280.85C340.92 269.11 299.08 269.11 259.84 280.85Z" id="c1Ap1SJK4G"></path><path d="M319.28 200.94C319.28 208.05 319.28 264.94 319.28 272.05C339.79 271.98 360.31 274.9 380.16 280.84C386.38 282.7 392.96 279.32 395.15 273.22C400.42 258.6 405.68 243.98 410.94 229.37C413.33 222.74 409.65 215.51 402.91 213.43C375.67 205.02 347.48 200.86 319.28 200.94Z" id="e6lzY2E8Ck"></path><path d="M207.59 462.22C200.94 462.22 195.56 456.84 195.56 450.19C195.56 438.38 195.56 343.85 195.56 332.03C195.56 325.39 200.94 320 207.59 320C215.85 320 281.93 320 290.19 320C296.84 320 302.22 325.39 302.22 332.03C302.22 343.85 302.22 438.38 302.22 450.19C302.22 456.84 296.83 462.22 290.19 462.22C273.67 462.22 215.85 462.22 207.59 462.22Z" id="brN20BAAD"></path><path d="M349.81 462.22C343.17 462.22 337.78 456.84 337.78 450.19C337.78 438.38 337.78 343.85 337.78 332.03C337.78 325.39 343.17 320 349.81 320C358.07 320 424.15 320 432.41 320C439.06 320 444.45 325.39 444.45 332.03C444.45 343.85 444.45 438.38 444.45 450.19C444.45 456.84 439.06 462.22 432.41 462.22C415.89 462.22 358.07 462.22 349.81 462.22Z" id="afdIDOUae"></path><path d="M262.02 224.82C261.22 223.22 259.28 222.58 257.68 223.37C256.08 224.17 255.43 226.11 256.23 227.71C258.64 232.52 277.89 271.03 280.3 275.84C282.51 275.42 284.73 275.04 286.95 274.68C281.96 264.71 264.51 229.8 262.02 224.82Z" id="eUqL9qeJ2"></path></defs><g><g><g><use xlink:href="#b1cHIlukMX" opacity="1" fill="#7e57c2" fill-opacity="1"></use><g><use xlink:href="#b1cHIlukMX" opacity="1" fill-opacity="0" stroke="#000000" stroke-width="1" stroke-opacity="0"></use></g></g><g><use xlink:href="#aov55QVP" opacity="1" fill="#311b92" fill-opacity="1"></use><g><use xlink:href="#aov55QVP" opacity="1" fill-opacity="0" stroke="#000000" stroke-width="1" stroke-opacity="0"></use></g></g><g><use xlink:href="#j2LT12Kzg3" opacity="1" fill="#2196f3" fill-opacity="1"></use><g><use xlink:href="#j2LT12Kzg3" opacity="1" fill-opacity="0" stroke="#000000" stroke-width="1" stroke-opacity="0"></use></g></g><g><use xlink:href="#d14UWMxCQr" opacity="1" fill="#1976d2" fill-opacity="1"></use><g><use xlink:href="#d14UWMxCQr" opacity="1" fill-opacity="0" stroke="#000000" stroke-width="1" stroke-opacity="0"></use></g></g><g><use xlink:href="#c1Ap1SJK4G" opacity="1" fill="#eeeeee" fill-opacity="1"></use><g><use xlink:href="#c1Ap1SJK4G" opacity="1" fill-opacity="0" stroke="#000000" stroke-width="1" stroke-opacity="0"></use></g></g><g><use xlink:href="#e6lzY2E8Ck" opacity="1" fill="#bdbdbd" fill-opacity="1"></use><g><use xlink:href="#e6lzY2E8Ck" opacity="1" fill-opacity="0" stroke="#000000" stroke-width="1" stroke-opacity="0"></use></g></g><g><use xlink:href="#brN20BAAD" opacity="1" fill="#9e9e9e" fill-opacity="1"></use><g><use xlink:href="#brN20BAAD" opacity="1" fill-opacity="0" stroke="#000000" stroke-width="1" stroke-opacity="0"></use></g></g><g><use xlink:href="#afdIDOUae" opacity="1" fill="#616161" fill-opacity="1"></use><g><use xlink:href="#afdIDOUae" opacity="1" fill-opacity="0" stroke="#000000" stroke-width="1" stroke-opacity="0"></use></g></g><g><use xlink:href="#eUqL9qeJ2" opacity="1" fill="#9e9e9e" fill-opacity="1"></use><g><use xlink:href="#eUqL9qeJ2" opacity="1" fill-opacity="0" stroke="#000000" stroke-width="1" stroke-opacity="0"></use></g></g></g></g></svg>