<?xml version="1.0" encoding="UTF-8" standalone="no"?>
<!DOCTYPE svg PUBLIC "-//W3C//DTD SVG 1.1//EN" "http://www.w3.org/Graphics/SVG/1.1/DTD/svg11.dtd">
<svg version="1.1" xmlns="http://www.w3.org/2000/svg" xmlns:xlink="http://www.w3.org/1999/xlink" preserveAspectRatio="xMidYMid meet" viewBox="0 0 640 640" width="640" height="640"><defs><path d="M320 0C143.27 0 0 143.27 0 320C0 496.73 143.27 640 320 640C496.73 640 640 496.73 640 320C640 143.27 496.73 0 320 0Z" id="d2q89S1KBl"></path><path d="M368.61 189.74L420.95 136.71L487.08 201.97L434.74 255L368.61 189.74Z" id="h1aw3C25Od"></path><path d="M471.66 186.69L347.45 393.77L286.73 331.98L169.1 489.58C259.34 579.83 309.48 629.97 319.51 639.99C319.67 639.99 319.83 640 320 640C485.47 640 621.6 514.41 638.28 353.35C616.06 331.13 560.52 275.58 471.66 186.69Z" id="eAnnuG6Jg"></path><path d="M389.21 342.03C389.21 232.14 389.21 171.1 389.21 158.89C389.21 118.12 356.04 84.96 315.28 84.96C274.51 84.96 241.34 118.12 241.34 158.89C241.34 171.1 241.34 232.14 241.34 342.03L206.07 342.03C206.07 232.14 206.07 171.1 206.07 158.89C206.07 98.67 255.06 49.68 315.28 49.68C375.49 49.68 424.48 98.67 424.48 158.89C424.48 171.1 424.48 232.14 424.48 342.03L389.21 342.03Z" id="eChrCOUr0"></path><path d="M314.9 49.68C314.9 53.21 314.9 81.44 314.9 84.97C315.02 84.97 315.15 84.95 315.27 84.95C356.04 84.95 389.2 118.12 389.2 158.88C389.2 171.09 389.2 232.14 389.2 342.02L424.48 342.02C424.48 232.14 424.48 171.09 424.48 158.88C424.48 98.67 375.49 49.68 315.27 49.68C315.15 49.68 315.02 49.68 314.9 49.68Z" id="d6P7KQOWx"></path><path d="M186.21 495.57C170.9 495.57 158.49 483.16 158.49 467.85C158.49 447.27 158.49 282.57 158.49 261.98C158.49 246.67 170.9 234.26 186.21 234.26C212.02 234.26 418.53 234.26 444.34 234.26C459.65 234.26 472.06 246.67 472.06 261.98C472.06 282.57 472.06 447.27 472.06 467.85C472.06 483.16 459.65 495.57 444.34 495.57C392.71 495.57 212.02 495.57 186.21 495.57Z" id="f2SMOu6X1S"></path><path d="M314.9 234.27L314.9 495.57C392.56 495.57 435.71 495.57 444.34 495.57C459.65 495.57 472.06 483.16 472.06 467.85C472.06 447.27 472.06 282.57 472.06 261.98C472.06 246.68 459.65 234.27 444.34 234.27C427.08 234.27 383.93 234.27 314.9 234.27Z" id="am4mq0xhP"></path><path d="M315.28 304.06C294.71 304.06 278.04 320.73 278.04 341.3C278.04 355.07 285.54 367.07 296.66 373.51C296.66 377.68 296.66 411.04 296.66 415.2C296.66 425.49 305 433.82 315.28 433.82C325.56 433.82 333.9 425.49 333.9 415.2C333.9 411.04 333.9 377.68 333.9 373.51C345.01 367.07 352.51 355.07 352.51 341.3C352.51 320.73 335.84 304.06 315.28 304.06Z" id="c8oHCdiLg"></path><path d="M314.9 304.08C314.9 317.05 314.9 420.82 314.9 433.79C315.03 433.79 315.15 433.83 315.27 433.83C325.56 433.83 333.89 425.49 333.89 415.21C333.89 411.04 333.89 377.68 333.89 373.52C345.01 367.08 352.51 355.08 352.51 341.3C352.51 320.73 335.84 304.06 315.27 304.06C315.15 304.06 315.03 304.08 314.9 304.08Z" id="cTWhfqVxI"></path><path d="M343.5 161.45L389.25 161.45L389.25 218.45L343.5 218.45L343.5 161.45Z" id="fjHdPuREa"></path></defs><g><g><g><use xlink:href="#d2q89S1KBl" opacity="1" fill="#7e57c2" fill-opacity="1"></use><g><use xlink:href="#d2q89S1KBl" opacity="1" fill-opacity="0" stroke="#000000" stroke-width="1" stroke-opacity="0"></use></g></g><g><use xlink:href="#h1aw3C25Od" opacity="1" fill="#311b92" fill-opacity="1"></use></g><g><use xlink:href="#eAnnuG6Jg" opacity="1" fill="#311b92" fill-opacity="1"></use><g><use xlink:href="#eAnnuG6Jg" opacity="1" fill-opacity="0" stroke="#000000" stroke-width="1" stroke-opacity="0"></use></g></g><g><use xlink:href="#eChrCOUr0" opacity="1" fill="#eeeeee" fill-opacity="1"></use><g><use xlink:href="#eChrCOUr0" opacity="1" fill-opacity="0" stroke="#000000" stroke-width="1" stroke-opacity="0"></use></g></g><g><use xlink:href="#d6P7KQOWx" opacity="1" fill="#bdbdbd" fill-opacity="1"></use><g><use xlink:href="#d6P7KQOWx" opacity="1" fill-opacity="0" stroke="#000000" stroke-width="1" stroke-opacity="0"></use></g></g><g><use xlink:href="#f2SMOu6X1S" opacity="1" fill="#9e9e9e" fill-opacity="1"></use><g><use xlink:href="#f2SMOu6X1S" opacity="1" fill-opacity="0" stroke="#000000" stroke-width="1" stroke-opacity="0"></use></g></g><g><use xlink:href="#am4mq0xhP" opacity="1" fill="#616161" fill-opacity="1"></use><g><use xlink:href="#am4mq0xhP" opacity="1" fill-opacity="0" stroke="#000000" stroke-width="1" stroke-opacity="0"></use></g></g><g><use xlink:href="#c8oHCdiLg" opacity="1" fill="#eeeeee" fill-opacity="1"></use><g><use xlink:href="#c8oHCdiLg" opacity="1" fill-opacity="0" stroke="#000000" stroke-width="1" stroke-opacity="0"></use></g></g><g><use xlink:href="#cTWhfqVxI" opacity="1" fill="#bdbdbd" fill-opacity="1"></use><g><use xlink:href="#cTWhfqVxI" opacity="1" fill-opacity="0" stroke="#000000" stroke-width="1" stroke-opacity="0"></use></g></g><g><use xlink:href="#fjHdPuREa" opacity="1" fill="#7e57c2" fill-opacity="1"></use></g></g></g></svg>