<?xml version="1.0" encoding="UTF-8" standalone="no"?>
<!DOCTYPE svg PUBLIC "-//W3C//DTD SVG 1.1//EN" "http://www.w3.org/Graphics/SVG/1.1/DTD/svg11.dtd">
<svg version="1.1" xmlns="http://www.w3.org/2000/svg" xmlns:xlink="http://www.w3.org/1999/xlink" preserveAspectRatio="xMidYMid meet" viewBox="0 0 640 640" width="640" height="640"><defs><path d="M320 0C143.27 0 0 143.27 0 320C0 496.73 143.27 640 320 640C496.73 640 640 496.73 640 320C640 143.27 496.73 0 320 0Z" id="c2mULI96TN"></path><path d="M638.16 354.4C631.03 347.27 595.39 311.64 531.24 247.49L528.6 251.49L455.35 178.23L428.44 172.1L343.44 85.48L337.58 126.33L229.89 150.87L144.74 236.02L139.35 256.43L115 291.6L151.56 328.15L64.25 378.13L326.06 639.92C522.82 555.3 626.85 460.12 638.16 354.4Z" id="hXRA65Oxu"></path><path d="M321.44 123.92C321.44 125.22 321.44 135.58 321.44 136.87C421.77 137.65 503.16 219.48 503.16 320C503.16 420.52 421.77 502.35 321.44 503.13C321.44 504.42 321.44 514.78 321.44 516.08C428.9 515.3 516.09 427.65 516.09 320C516.09 212.35 428.9 124.7 321.44 123.92Z" id="b1FBC9DNWf"></path><path d="M136.83 320C136.83 219 219 136.84 320 136.84C320.48 136.84 320.96 136.87 321.44 136.87C321.44 135.58 321.44 125.22 321.44 123.93C320.96 123.92 320.48 123.91 320 123.91C211.87 123.91 123.91 211.87 123.91 320C123.91 428.13 211.87 516.09 320 516.09C320.48 516.09 320.96 516.08 321.44 516.07C321.44 514.78 321.44 504.42 321.44 503.13C320.96 503.13 320.48 503.17 320 503.17C219 503.17 136.83 421 136.83 320Z" id="c117ZXTEi6"></path><path d="M320 148.46C358.63 148.46 389.95 179.78 389.95 218.42C380.62 218.41 333.99 218.41 250.05 218.41C270.93 171.78 294.25 148.46 320 148.46Z" id="bWRwW9fNk"></path><path d="M321.08 218.41C362.4 218.41 385.36 218.41 389.95 218.41C389.95 180.14 359.21 149.07 321.08 148.49C321.08 157.81 321.08 181.12 321.08 218.41Z" id="d1rT74Dqs8"></path><path d="M321.12 76.3C303.72 76.3 289.61 90.41 289.61 107.81C289.61 125.21 303.72 139.32 321.12 139.32C338.52 139.32 352.63 125.21 352.63 107.81C352.63 90.41 338.52 76.3 321.12 76.3Z" id="a2gbIGZXMz"></path><path d="M321.08 76.31C321.08 82.61 321.08 133.02 321.08 139.33C321.1 139.33 321.11 139.33 321.13 139.33C338.53 139.33 352.64 125.22 352.64 107.82C352.64 90.42 338.53 76.31 321.13 76.31C321.11 76.31 321.09 76.31 321.08 76.31Z" id="b1GGwav9xd"></path><path d="M320 467.88C358.63 467.88 389.95 499.2 389.95 537.83C380.62 537.83 333.99 537.83 250.05 537.83C270.93 491.2 294.25 467.88 320 467.88Z" id="aUr9NHnn6"></path><path d="M321.08 537.83C362.4 537.83 385.36 537.83 389.95 537.83C389.95 499.56 359.21 468.49 321.08 467.91C321.08 477.23 321.08 500.54 321.08 537.83Z" id="b116LPLuCB"></path><path d="M321.12 395.72C303.72 395.72 289.61 409.83 289.61 427.23C289.61 444.63 303.72 458.74 321.12 458.74C338.52 458.74 352.63 444.63 352.63 427.23C352.63 409.83 338.52 395.72 321.12 395.72Z" id="j2P52SwWIx"></path><path d="M321.08 395.73C321.08 402.03 321.08 452.44 321.08 458.75C321.1 458.75 321.11 458.75 321.13 458.75C338.53 458.75 352.64 444.64 352.64 427.24C352.64 409.84 338.53 395.73 321.13 395.73C321.11 395.73 321.09 395.73 321.08 395.73Z" id="b1rjNhSmrT"></path><path d="M134.2 308.17C172.84 308.17 204.16 339.49 204.16 378.12C194.83 378.12 148.19 378.12 64.25 378.12C85.13 331.49 108.45 308.17 134.2 308.17Z" id="b3EjCzkfM"></path><path d="M135.28 378.12C176.61 378.12 199.56 378.12 204.15 378.12C204.16 339.85 173.41 308.78 135.28 308.2C135.28 317.52 135.28 340.83 135.28 378.12Z" id="b3YQgy7w1"></path><path d="M135.33 236.02C117.93 236.02 103.82 250.13 103.82 267.53C103.82 284.93 117.93 299.04 135.33 299.04C152.73 299.04 166.84 284.93 166.84 267.53C166.84 250.13 152.73 236.02 135.33 236.02Z" id="bcc6zKn0T"></path><path d="M135.28 236.02C135.28 242.32 135.28 292.73 135.28 299.04C135.3 299.04 135.32 299.04 135.33 299.04C152.74 299.04 166.84 284.93 166.84 267.53C166.84 250.13 152.73 236.02 135.33 236.02C135.32 236.02 135.3 236.02 135.28 236.02Z" id="b5rKc0ZX1b"></path><path d="M505.8 308.17C544.43 308.17 575.75 339.49 575.75 378.12C566.42 378.12 519.79 378.12 435.85 378.12C456.73 331.49 480.04 308.17 505.8 308.17Z" id="c8HWmR8Hd"></path><path d="M506.87 378.12C548.2 378.12 571.16 378.12 575.75 378.12C575.75 339.85 545.01 308.78 506.87 308.2C506.87 317.52 506.87 340.83 506.87 378.12Z" id="eAiECCJF1"></path><path d="M506.94 236.02C489.53 236.02 475.43 250.13 475.43 267.53C475.43 284.93 489.53 299.04 506.94 299.04C524.34 299.04 538.44 284.93 538.44 267.53C538.44 250.13 524.34 236.02 506.94 236.02Z" id="a4RHNlyAfQ"></path><path d="M506.87 236.02C506.87 242.32 506.87 292.73 506.87 299.04C506.89 299.04 506.91 299.04 506.93 299.04C524.33 299.04 538.43 284.93 538.43 267.53C538.44 250.13 524.33 236.02 506.93 236.02C506.91 236.02 506.89 236.02 506.87 236.02Z" id="bdPPuFGjS"></path></defs><g><g><g><use xlink:href="#c2mULI96TN" opacity="1" fill="#7e57c2" fill-opacity="1"></use><g><use xlink:href="#c2mULI96TN" opacity="1" fill-opacity="0" stroke="#000000" stroke-width="1" stroke-opacity="0"></use></g></g><g><use xlink:href="#hXRA65Oxu" opacity="1" fill="#311b92" fill-opacity="1"></use><g><use xlink:href="#hXRA65Oxu" opacity="1" fill-opacity="0" stroke="#000000" stroke-width="1" stroke-opacity="0"></use></g></g><g><use xlink:href="#b1FBC9DNWf" opacity="1" fill="#616161" fill-opacity="1"></use><g><use xlink:href="#b1FBC9DNWf" opacity="1" fill-opacity="0" stroke="#000000" stroke-width="1" stroke-opacity="0"></use></g></g><g><use xlink:href="#c117ZXTEi6" opacity="1" fill="#9e9e9e" fill-opacity="1"></use><g><use xlink:href="#c117ZXTEi6" opacity="1" fill-opacity="0" stroke="#000000" stroke-width="1" stroke-opacity="0"></use></g></g><g><use xlink:href="#bWRwW9fNk" opacity="1" fill="#eeeeee" fill-opacity="1"></use><g><use xlink:href="#bWRwW9fNk" opacity="1" fill-opacity="0" stroke="#000000" stroke-width="1" stroke-opacity="0"></use></g></g><g><use xlink:href="#d1rT74Dqs8" opacity="1" fill="#bdbdbd" fill-opacity="1"></use><g><use xlink:href="#d1rT74Dqs8" opacity="1" fill-opacity="0" stroke="#000000" stroke-width="1" stroke-opacity="0"></use></g></g><g><use xlink:href="#a2gbIGZXMz" opacity="1" fill="#eeeeee" fill-opacity="1"></use><g><use xlink:href="#a2gbIGZXMz" opacity="1" fill-opacity="0" stroke="#000000" stroke-width="1" stroke-opacity="0"></use></g></g><g><use xlink:href="#b1GGwav9xd" opacity="1" fill="#bdbdbd" fill-opacity="1"></use><g><use xlink:href="#b1GGwav9xd" opacity="1" fill-opacity="0" stroke="#000000" stroke-width="1" stroke-opacity="0"></use></g></g><g><use xlink:href="#aUr9NHnn6" opacity="1" fill="#eeeeee" fill-opacity="1"></use><g><use xlink:href="#aUr9NHnn6" opacity="1" fill-opacity="0" stroke="#000000" stroke-width="1" stroke-opacity="0"></use></g></g><g><use xlink:href="#b116LPLuCB" opacity="1" fill="#bdbdbd" fill-opacity="1"></use><g><use xlink:href="#b116LPLuCB" opacity="1" fill-opacity="0" stroke="#000000" stroke-width="1" stroke-opacity="0"></use></g></g><g><use xlink:href="#j2P52SwWIx" opacity="1" fill="#eeeeee" fill-opacity="1"></use><g><use xlink:href="#j2P52SwWIx" opacity="1" fill-opacity="0" stroke="#000000" stroke-width="1" stroke-opacity="0"></use></g></g><g><use xlink:href="#b1rjNhSmrT" opacity="1" fill="#bdbdbd" fill-opacity="1"></use><g><use xlink:href="#b1rjNhSmrT" opacity="1" fill-opacity="0" stroke="#000000" stroke-width="1" stroke-opacity="0"></use></g></g><g><use xlink:href="#b3EjCzkfM" opacity="1" fill="#2196f3" fill-opacity="1"></use><g><use xlink:href="#b3EjCzkfM" opacity="1" fill-opacity="0" stroke="#000000" stroke-width="1" stroke-opacity="0"></use></g></g><g><use xlink:href="#b3YQgy7w1" opacity="1" fill="#1976d2" fill-opacity="1"></use><g><use xlink:href="#b3YQgy7w1" opacity="1" fill-opacity="0" stroke="#000000" stroke-width="1" stroke-opacity="0"></use></g></g><g><use xlink:href="#bcc6zKn0T" opacity="1" fill="#2196f3" fill-opacity="1"></use><g><use xlink:href="#bcc6zKn0T" opacity="1" fill-opacity="0" stroke="#000000" stroke-width="1" stroke-opacity="0"></use></g></g><g><use xlink:href="#b5rKc0ZX1b" opacity="1" fill="#1976d2" fill-opacity="1"></use><g><use xlink:href="#b5rKc0ZX1b" opacity="1" fill-opacity="0" stroke="#000000" stroke-width="1" stroke-opacity="0"></use></g></g><g><use xlink:href="#c8HWmR8Hd" opacity="1" fill="#2196f3" fill-opacity="1"></use><g><use xlink:href="#c8HWmR8Hd" opacity="1" fill-opacity="0" stroke="#000000" stroke-width="1" stroke-opacity="0"></use></g></g><g><use xlink:href="#eAiECCJF1" opacity="1" fill="#1976d2" fill-opacity="1"></use><g><use xlink:href="#eAiECCJF1" opacity="1" fill-opacity="0" stroke="#000000" stroke-width="1" stroke-opacity="0"></use></g></g><g><use xlink:href="#a4RHNlyAfQ" opacity="1" fill="#2196f3" fill-opacity="1"></use><g><use xlink:href="#a4RHNlyAfQ" opacity="1" fill-opacity="0" stroke="#000000" stroke-width="1" stroke-opacity="0"></use></g></g><g><use xlink:href="#bdPPuFGjS" opacity="1" fill="#1976d2" fill-opacity="1"></use><g><use xlink:href="#bdPPuFGjS" opacity="1" fill-opacity="0" stroke="#000000" stroke-width="1" stroke-opacity="0"></use></g></g></g></g></svg>