<?xml version="1.0" encoding="UTF-8" standalone="no"?>
<!DOCTYPE svg PUBLIC "-//W3C//DTD SVG 1.1//EN" "http://www.w3.org/Graphics/SVG/1.1/DTD/svg11.dtd">
<svg version="1.1" xmlns="http://www.w3.org/2000/svg" xmlns:xlink="http://www.w3.org/1999/xlink" preserveAspectRatio="xMidYMid meet" viewBox="0 0 640 640" width="640" height="640"><defs><path d="M234.48 274.79C363.98 274.79 468.96 379.77 468.96 509.27C437.7 509.27 281.38 509.27 0 509.27C69.99 352.95 148.15 274.79 234.48 274.79Z" id="a2GopqbK62"></path><path d="M238.09 509.27C376.61 509.27 453.57 509.27 468.96 509.27C468.96 380.98 365.92 276.81 238.09 274.88C238.09 306.13 238.09 384.26 238.09 509.27Z" id="c264BXL5et"></path><path d="M238.26 32.92C179.92 32.92 132.63 80.21 132.63 138.55C132.63 196.88 179.92 244.17 238.26 244.17C296.59 244.17 343.88 196.88 343.88 138.55C343.88 80.21 296.59 32.92 238.26 32.92Z" id="b6q0zyUGZ"></path><path d="M238.09 32.93C238.09 54.05 238.09 223.04 238.09 244.16C238.15 244.16 238.2 244.17 238.26 244.17C296.59 244.17 343.88 196.88 343.88 138.54C343.88 80.21 296.59 32.92 238.26 32.92C238.2 32.92 238.15 32.93 238.09 32.93Z" id="e6z91uYKt"></path><path d="M558.39 449.44C558.39 341.2 558.39 281.06 558.39 269.04C558.39 228.88 525.72 196.21 485.56 196.21C445.41 196.21 412.73 228.88 412.73 269.04C412.73 281.06 412.73 341.2 412.73 449.44L377.99 449.44C377.99 341.2 377.99 281.06 377.99 269.04C377.99 209.72 426.24 161.46 485.56 161.46C544.88 161.46 593.14 209.72 593.14 269.04C593.14 281.06 593.14 341.2 593.14 449.44L558.39 449.44Z" id="b4mV7pnQDi"></path><path d="M485.19 161.46C485.19 164.94 485.19 192.74 485.19 196.22C485.31 196.22 485.44 196.2 485.56 196.2C525.72 196.2 558.39 228.87 558.39 269.03C558.39 281.06 558.39 341.19 558.39 449.43L593.13 449.43C593.13 341.19 593.13 281.06 593.13 269.03C593.14 209.71 544.88 161.46 485.56 161.46C485.44 161.46 485.31 161.46 485.19 161.46Z" id="j4hNyxJNgg"></path><path d="M358.42 600.69C343.34 600.69 331.12 588.46 331.12 573.39C331.12 553.11 331.12 390.87 331.12 370.59C331.12 355.51 343.34 343.29 358.42 343.29C383.85 343.29 587.27 343.29 612.7 343.29C627.78 343.29 640 355.51 640 370.59C640 390.87 640 553.11 640 573.39C640 588.46 627.78 600.69 612.7 600.69C561.84 600.69 383.85 600.69 358.42 600.69Z" id="a1InKr8Gdo"></path><path d="M485.19 343.29L485.19 600.69C561.7 600.69 604.2 600.69 612.7 600.69C627.78 600.69 640 588.46 640 573.39C640 553.11 640 390.87 640 370.59C640 355.51 627.78 343.29 612.7 343.29C595.7 343.29 553.2 343.29 485.19 343.29Z" id="bvqgKUfds"></path><path d="M485.56 412.04C465.31 412.04 448.88 428.46 448.88 448.72C448.88 462.29 456.27 474.11 467.23 480.46C467.23 484.56 467.23 517.42 467.23 521.52C467.23 531.65 475.44 539.86 485.57 539.86C495.69 539.86 503.91 531.65 503.91 521.52C503.91 517.42 503.91 484.56 503.91 480.46C514.85 474.11 522.24 462.29 522.24 448.72C522.24 428.46 505.82 412.04 485.56 412.04Z" id="a6bjNtmd07"></path><path d="M485.19 412.06C485.19 424.84 485.19 527.05 485.19 539.83C485.32 539.83 485.44 539.87 485.56 539.87C495.69 539.87 503.9 531.65 503.9 521.53C503.9 517.42 503.9 484.56 503.9 480.46C514.86 474.11 522.24 462.3 522.24 448.72C522.24 428.46 505.82 412.04 485.56 412.04C485.44 412.04 485.32 412.06 485.19 412.06Z" id="c1YOS0VbEX"></path></defs><g><g><g><use xlink:href="#a2GopqbK62" opacity="1" fill="#2196f3" fill-opacity="1"></use><g><use xlink:href="#a2GopqbK62" opacity="1" fill-opacity="0" stroke="#000000" stroke-width="1" stroke-opacity="0"></use></g></g><g><use xlink:href="#c264BXL5et" opacity="1" fill="#1976d2" fill-opacity="1"></use><g><use xlink:href="#c264BXL5et" opacity="1" fill-opacity="0" stroke="#000000" stroke-width="1" stroke-opacity="0"></use></g></g><g><use xlink:href="#b6q0zyUGZ" opacity="1" fill="#2196f3" fill-opacity="1"></use><g><use xlink:href="#b6q0zyUGZ" opacity="1" fill-opacity="0" stroke="#000000" stroke-width="1" stroke-opacity="0"></use></g></g><g><use xlink:href="#e6z91uYKt" opacity="1" fill="#1976d2" fill-opacity="1"></use><g><use xlink:href="#e6z91uYKt" opacity="1" fill-opacity="0" stroke="#000000" stroke-width="1" stroke-opacity="0"></use></g></g><g><use xlink:href="#b4mV7pnQDi" opacity="1" fill="#eeeeee" fill-opacity="1"></use><g><use xlink:href="#b4mV7pnQDi" opacity="1" fill-opacity="0" stroke="#000000" stroke-width="1" stroke-opacity="0"></use></g></g><g><use xlink:href="#j4hNyxJNgg" opacity="1" fill="#bdbdbd" fill-opacity="1"></use><g><use xlink:href="#j4hNyxJNgg" opacity="1" fill-opacity="0" stroke="#000000" stroke-width="1" stroke-opacity="0"></use></g></g><g><use xlink:href="#a1InKr8Gdo" opacity="1" fill="#9e9e9e" fill-opacity="1"></use><g><use xlink:href="#a1InKr8Gdo" opacity="1" fill-opacity="0" stroke="#000000" stroke-width="1" stroke-opacity="0"></use></g></g><g><use xlink:href="#bvqgKUfds" opacity="1" fill="#616161" fill-opacity="1"></use><g><use xlink:href="#bvqgKUfds" opacity="1" fill-opacity="0" stroke="#000000" stroke-width="1" stroke-opacity="0"></use></g></g><g><use xlink:href="#a6bjNtmd07" opacity="1" fill="#eeeeee" fill-opacity="1"></use><g><use xlink:href="#a6bjNtmd07" opacity="1" fill-opacity="0" stroke="#000000" stroke-width="1" stroke-opacity="0"></use></g></g><g><use xlink:href="#c1YOS0VbEX" opacity="1" fill="#bdbdbd" fill-opacity="1"></use><g><use xlink:href="#c1YOS0VbEX" opacity="1" fill-opacity="0" stroke="#000000" stroke-width="1" stroke-opacity="0"></use></g></g></g></g></svg>