<?xml version="1.0" encoding="UTF-8" standalone="no"?>
<!DOCTYPE svg PUBLIC "-//W3C//DTD SVG 1.1//EN" "http://www.w3.org/Graphics/SVG/1.1/DTD/svg11.dtd">
<svg version="1.1" xmlns="http://www.w3.org/2000/svg" xmlns:xlink="http://www.w3.org/1999/xlink" preserveAspectRatio="xMidYMid meet" viewBox="0 0 640 640" width="640" height="640"><defs><path d="M640 481.96C640 481.96 640 481.96 640 481.96C640 506.03 640 519.4 640 522.08C640 522.08 640 522.08 640 522.08C255.68 522.08 42.18 522.08 -0.53 522.08C-0.53 522.08 -0.53 522.08 -0.53 522.08C-0.53 498 -0.53 484.63 -0.53 481.96C-0.53 481.96 -0.53 481.96 -0.53 481.96C383.79 481.96 597.3 481.96 640 481.96Z" id="d3mGJvCdcF"></path><path d="M-0.16 522.1L32.98 535.42L606.5 535.42L639.63 522.1L-0.16 522.1Z" id="avAE3N5Aa"></path><path d="M54.15 104.22C42.44 104.22 32.96 113.71 32.96 125.42C32.96 149.18 32.96 268.03 32.96 481.96L606.52 481.96C606.52 268.03 606.52 149.18 606.52 125.42C606.52 113.71 597.03 104.22 585.33 104.22C479.09 104.22 107.27 104.22 54.15 104.22Z" id="b31PiNSLN"></path><path d="M571.58 139.17C571.58 139.17 571.58 139.17 571.58 139.17C571.58 323.89 571.58 426.51 571.58 447.03C571.58 447.03 571.58 447.03 571.58 447.03C269.37 447.03 101.47 447.03 67.89 447.03C67.89 447.03 67.89 447.03 67.89 447.03C67.89 262.32 67.89 159.7 67.89 139.17C67.89 139.17 67.89 139.17 67.89 139.17C370.11 139.17 538 139.17 571.58 139.17Z" id="a8ZkYCojM"></path><path d="M367.39 495.91C367.39 495.91 367.39 495.91 367.39 495.91C367.39 503.29 367.39 507.39 367.39 508.21C367.39 508.21 367.39 508.21 367.39 508.21C310.21 508.21 278.45 508.21 272.09 508.21C272.09 508.21 272.09 508.21 272.09 508.21C272.09 500.83 272.09 496.73 272.09 495.91C272.09 495.91 272.09 495.91 272.09 495.91C329.27 495.91 361.04 495.91 367.39 495.91Z" id="bb6jYAwcL"></path><path d="M319.74 212.33C307.92 195.14 288.15 183.83 265.71 183.83C229.49 183.83 200.14 213.19 200.14 249.4C200.14 303.54 319.74 411.16 319.74 411.16C319.74 411.16 439.34 313.79 439.34 249.4C439.34 213.19 409.99 183.83 373.77 183.83C351.33 183.83 331.56 195.14 319.74 212.33Z" id="g4UVqLIn9s"></path></defs><g><g><g><use xlink:href="#d3mGJvCdcF" opacity="1" fill="#9e9e9e" fill-opacity="1"></use><g><use xlink:href="#d3mGJvCdcF" opacity="1" fill-opacity="0" stroke="#000000" stroke-width="1" stroke-opacity="0"></use></g></g><g><use xlink:href="#avAE3N5Aa" opacity="1" fill="#616161" fill-opacity="1"></use><g><use xlink:href="#avAE3N5Aa" opacity="1" fill-opacity="0" stroke="#000000" stroke-width="1" stroke-opacity="0"></use></g></g><g><use xlink:href="#b31PiNSLN" opacity="1" fill="#616161" fill-opacity="1"></use><g><use xlink:href="#b31PiNSLN" opacity="1" fill-opacity="0" stroke="#000000" stroke-width="1" stroke-opacity="0"></use></g></g><g><use xlink:href="#a8ZkYCojM" opacity="1" fill="#ebf0f3" fill-opacity="1"></use><g><use xlink:href="#a8ZkYCojM" opacity="1" fill-opacity="0" stroke="#000000" stroke-width="1" stroke-opacity="0"></use></g></g><g><use xlink:href="#bb6jYAwcL" opacity="1" fill="#616161" fill-opacity="1"></use><g><use xlink:href="#bb6jYAwcL" opacity="1" fill-opacity="0" stroke="#000000" stroke-width="1" stroke-opacity="0"></use></g></g><g><use xlink:href="#g4UVqLIn9s" opacity="1" fill="#2196f3" fill-opacity="1"></use><g><use xlink:href="#g4UVqLIn9s" opacity="1" fill-opacity="0" stroke="#000000" stroke-width="1" stroke-opacity="0"></use></g></g></g></g></svg>