<?xml version="1.0" encoding="UTF-8" standalone="no"?>
<!DOCTYPE svg PUBLIC "-//W3C//DTD SVG 1.1//EN" "http://www.w3.org/Graphics/SVG/1.1/DTD/svg11.dtd">
<svg version="1.1" xmlns="http://www.w3.org/2000/svg" xmlns:xlink="http://www.w3.org/1999/xlink" preserveAspectRatio="xMidYMid meet" viewBox="0 0 640 640" width="640" height="640"><defs><path d="M121.38 0C109.81 0 100.43 9.38 100.43 20.95C100.43 74.11 100.43 499.4 100.43 552.56C100.43 564.13 109.81 573.51 121.38 573.51C161.1 573.51 478.9 573.51 518.63 573.51C530.2 573.51 539.58 564.13 539.58 552.56C539.58 524.12 539.58 381.91 539.58 125.93L413.65 0C238.29 0 140.86 0 121.38 0Z" id="eRWWSlTQM"></path><path d="M413.65 104.98C413.65 116.55 423.03 125.93 434.6 125.93C441.6 125.93 476.59 125.93 539.58 125.93L413.65 0C413.65 62.99 413.65 97.98 413.65 104.98Z" id="a2iICXxjKA"></path><path d="M545.17 451.6C539.23 393.79 490.38 348.7 431 348.7C400.39 348.7 372.65 360.75 352.08 380.28C327.69 332.62 278.13 299.97 220.91 299.97C139.58 299.97 73.64 365.9 73.64 447.24C73.64 449.46 73.71 451.66 73.8 453.85C31.6 463.19 0 500.77 0 545.79C0 597.82 42.18 640 94.21 640C139.37 640 500.63 640 545.79 640C597.82 640 640 597.82 640 545.79C640 493.75 597.82 451.58 545.79 451.58C545.58 451.58 545.38 451.6 545.17 451.6Z" id="b1hSMmbNS"></path><path d="M307.79 393.94C308.52 395.38 312.2 402.56 318.81 415.49C329.35 405.49 335.21 399.94 336.38 398.83C337.46 397.81 338.62 396.9 339.74 395.94C339.36 395.2 336.32 389.27 335.95 388.52C313.71 345.07 269.64 318.08 220.91 318.08C207.42 318.08 194.42 320.18 182.18 324.03C185.68 323.74 189.19 323.49 192.76 323.49C241.48 323.49 285.55 350.48 307.79 393.94Z" id="bfPKhXZ64"></path><path d="M545.95 469.72L528.83 469.72C527.82 459.96 527.26 454.54 527.15 453.46C522.07 404.06 480.73 366.81 430.99 366.81C419.93 366.81 409.14 368.79 398.93 372.41C400.23 372.35 401.52 372.22 402.84 372.22C452.58 372.22 493.91 409.48 499 458.87C499.11 459.95 499.67 465.37 500.67 475.13L517.8 475.13C518.05 475.11 518.19 475.1 518.22 475.1C559.91 475.41 593.73 509.43 593.73 551.2C593.73 583.26 573.77 610.69 545.65 621.88C545.67 621.88 545.77 621.88 545.78 621.88C587.75 621.88 621.88 587.74 621.88 545.79C621.88 504.02 588.07 470 546.38 469.68C546.32 469.69 546.18 469.7 545.95 469.72Z" id="a55ArURg7g"></path><path d="M373.45 66.1C373.45 66.1 373.45 66.1 373.45 66.1C373.45 80.06 373.45 87.82 373.45 89.37C373.45 89.37 373.45 89.37 373.45 89.37C232.11 89.37 153.59 89.37 137.89 89.37C137.89 89.37 137.89 89.37 137.89 89.37C137.89 75.4 137.89 67.65 137.89 66.1C137.89 66.1 137.89 66.1 137.89 66.1C279.22 66.1 357.74 66.1 373.45 66.1Z" id="kJ39Neb0Z"></path><path d="M502.23 151.4C502.23 151.4 502.23 151.4 502.23 151.4C502.23 165.36 502.23 173.12 502.23 174.67C502.23 174.67 502.23 174.67 502.23 174.67C283.62 174.67 162.18 174.67 137.89 174.67C137.89 174.67 137.89 174.67 137.89 174.67C137.89 160.71 137.89 152.95 137.89 151.4C137.89 151.4 137.89 151.4 137.89 151.4C356.49 151.4 477.94 151.4 502.23 151.4Z" id="a4rEVrA7b"></path><path d="M502.23 236.72C502.23 236.72 502.23 236.72 502.23 236.72C502.23 250.68 502.23 258.44 502.23 259.99C502.23 259.99 502.23 259.99 502.23 259.99C283.62 259.99 162.18 259.99 137.89 259.99C137.89 259.99 137.89 259.99 137.89 259.99C137.89 246.03 137.89 238.27 137.89 236.72C137.89 236.72 137.89 236.72 137.89 236.72C356.49 236.72 477.94 236.72 502.23 236.72Z" id="b3L7i4A9i"></path></defs><g><g><g><use xlink:href="#eRWWSlTQM" opacity="1" fill="#eeeeee" fill-opacity="1"></use><g><use xlink:href="#eRWWSlTQM" opacity="1" fill-opacity="0" stroke="#000000" stroke-width="1" stroke-opacity="0"></use></g></g><g><use xlink:href="#a2iICXxjKA" opacity="1" fill="#bdbdbd" fill-opacity="1"></use><g><use xlink:href="#a2iICXxjKA" opacity="1" fill-opacity="0" stroke="#000000" stroke-width="1" stroke-opacity="0"></use></g></g><g><use xlink:href="#b1hSMmbNS" opacity="1" fill="#2196f3" fill-opacity="1"></use><g><use xlink:href="#b1hSMmbNS" opacity="1" fill-opacity="0" stroke="#000000" stroke-width="1" stroke-opacity="0"></use></g></g><g><use xlink:href="#bfPKhXZ64" opacity="1" fill="#1976d2" fill-opacity="1"></use><g><use xlink:href="#bfPKhXZ64" opacity="1" fill-opacity="0" stroke="#000000" stroke-width="1" stroke-opacity="0"></use></g></g><g><use xlink:href="#a55ArURg7g" opacity="1" fill="#1976d2" fill-opacity="1"></use><g><use xlink:href="#a55ArURg7g" opacity="1" fill-opacity="0" stroke="#000000" stroke-width="1" stroke-opacity="0"></use></g></g><g><use xlink:href="#kJ39Neb0Z" opacity="1" fill="#bdbdbd" fill-opacity="1"></use><g><use xlink:href="#kJ39Neb0Z" opacity="1" fill-opacity="0" stroke="#000000" stroke-width="1" stroke-opacity="0"></use></g></g><g><use xlink:href="#a4rEVrA7b" opacity="1" fill="#bdbdbd" fill-opacity="1"></use><g><use xlink:href="#a4rEVrA7b" opacity="1" fill-opacity="0" stroke="#000000" stroke-width="1" stroke-opacity="0"></use></g></g><g><use xlink:href="#b3L7i4A9i" opacity="1" fill="#bdbdbd" fill-opacity="1"></use><g><use xlink:href="#b3L7i4A9i" opacity="1" fill-opacity="0" stroke="#000000" stroke-width="1" stroke-opacity="0"></use></g></g></g></g></svg>