<?xml version="1.0" encoding="UTF-8" standalone="no"?>
<!DOCTYPE svg PUBLIC "-//W3C//DTD SVG 1.1//EN" "http://www.w3.org/Graphics/SVG/1.1/DTD/svg11.dtd">
<svg version="1.1" xmlns="http://www.w3.org/2000/svg" xmlns:xlink="http://www.w3.org/1999/xlink" preserveAspectRatio="xMidYMid meet" viewBox="0 0 640 640" width="640" height="640"><defs><path d="M227.53 104.1C227.53 104.1 270.94 62.52 318.98 104.1C318.98 116.57 318.98 178.92 318.98 291.17L273.25 382.62L39.54 285.15C152.33 176.52 214.99 116.17 227.53 104.1Z" id="b2yk55NLQV"></path><path d="M411.36 104.31C411.36 104.31 367.94 62.74 319.9 104.31C319.9 116.78 319.9 179.14 319.9 291.38L365.63 382.84L598.66 284.7C486.28 176.47 423.85 116.34 411.36 104.31Z" id="abkFqIM3w"></path><path d="M411.36 337.11C411.36 337.11 411.36 337.11 411.36 337.11C411.36 391.98 411.36 422.47 411.36 428.56C411.36 428.56 411.36 428.56 411.36 428.56C301.61 428.56 240.64 428.56 228.45 428.56C228.45 428.56 228.45 428.56 228.45 428.56C228.45 373.69 228.45 343.21 228.45 337.11C228.45 337.11 228.45 337.11 228.45 337.11C338.2 337.11 399.17 337.11 411.36 337.11Z" id="andQmK3J"></path><path d="M411.35 337.11C411.35 337.11 411.35 337.11 411.35 337.11C411.35 391.98 411.35 422.47 411.35 428.56C411.35 428.56 411.35 428.56 411.35 428.56C355.93 428.56 325.14 428.56 318.98 428.56C318.98 428.56 318.98 428.56 318.98 428.56C318.98 373.69 318.98 343.21 318.98 337.11C318.98 337.11 318.98 337.11 318.98 337.11C374.4 337.11 405.19 337.11 411.35 337.11Z" id="c1hgHBUswn"></path><path d="M136.99 245.65C61.23 245.65 -0.19 307.07 -0.19 382.84C-0.19 458.6 61.23 520.02 136.99 520.02C212.76 520.02 274.18 458.6 274.18 382.84C274.18 307.07 212.76 245.65 136.99 245.65Z" id="c1KW609xI"></path><path d="M136.99 291.38C86.48 291.38 45.54 332.33 45.54 382.84C45.54 433.35 86.48 474.29 136.99 474.29C187.5 474.29 228.45 433.35 228.45 382.84C228.45 332.33 187.5 291.38 136.99 291.38Z" id="a22XOQM6Kb"></path><path d="M502.82 245.65C427.05 245.65 365.63 307.07 365.63 382.84C365.63 458.6 427.05 520.02 502.82 520.02C578.58 520.02 640 458.6 640 382.84C640 307.07 578.58 245.65 502.82 245.65Z" id="beyHgfX70"></path><path d="M502.82 291.17C452.31 291.17 411.36 332.11 411.36 382.62C411.36 433.13 452.31 474.08 502.82 474.08C553.33 474.08 594.27 433.13 594.27 382.62C594.27 332.11 553.33 291.17 502.82 291.17Z" id="a2banO88y"></path><path d="M319.9 364.14C307.28 364.14 297.04 353.91 297.04 341.28C297.04 318 297.04 131.76 297.04 108.48C297.04 95.86 307.28 85.62 319.9 85.62C319.9 85.62 319.9 85.62 319.9 85.62C332.53 85.62 342.77 95.86 342.77 108.48C342.77 131.76 342.77 318 342.77 341.28C342.77 353.91 332.53 364.14 319.9 364.14C319.9 364.14 319.9 364.14 319.9 364.14Z" id="c8iPIOMreO"></path><path d="M318.98 85.67C318.98 113.51 318.98 336.25 318.98 364.1C319.29 364.11 319.59 364.14 319.9 364.14C332.53 364.14 342.77 353.91 342.77 341.28C342.77 318 342.77 131.76 342.77 108.48C342.77 95.86 332.53 85.62 319.9 85.62C319.59 85.62 319.29 85.65 318.98 85.67Z" id="av5K1xtY"></path><path d="M319.9 308.01C291.59 308.01 268.63 330.97 268.63 359.28C268.63 387.6 291.59 410.55 319.9 410.55C348.22 410.55 371.17 387.6 371.17 359.28C371.17 330.97 348.22 308.01 319.9 308.01Z" id="dblU5ORXk"></path><path d="M318.98 308.06C318.98 318.3 318.98 400.26 318.98 410.5C319.29 410.51 319.59 410.55 319.9 410.55C348.22 410.55 371.17 387.6 371.17 359.28C371.17 330.97 348.22 308.01 319.9 308.01C319.59 308.01 319.29 308.05 318.98 308.06Z" id="g4TQpgXZw9"></path></defs><g><g><g><use xlink:href="#b2yk55NLQV" opacity="1" fill="#2196f3" fill-opacity="1"></use><g><use xlink:href="#b2yk55NLQV" opacity="1" fill-opacity="0" stroke="#000000" stroke-width="1" stroke-opacity="0"></use></g></g><g><use xlink:href="#abkFqIM3w" opacity="1" fill="#1976d2" fill-opacity="1"></use><g><use xlink:href="#abkFqIM3w" opacity="1" fill-opacity="0" stroke="#000000" stroke-width="1" stroke-opacity="0"></use></g></g><g><use xlink:href="#andQmK3J" opacity="1" fill="#2196f3" fill-opacity="1"></use><g><use xlink:href="#andQmK3J" opacity="1" fill-opacity="0" stroke="#000000" stroke-width="1" stroke-opacity="0"></use></g></g><g><use xlink:href="#c1hgHBUswn" opacity="1" fill="#1976d2" fill-opacity="1"></use><g><use xlink:href="#c1hgHBUswn" opacity="1" fill-opacity="0" stroke="#000000" stroke-width="1" stroke-opacity="0"></use></g></g><g><use xlink:href="#c1KW609xI" opacity="1" fill="#9e9e9e" fill-opacity="1"></use><g><use xlink:href="#c1KW609xI" opacity="1" fill-opacity="0" stroke="#000000" stroke-width="1" stroke-opacity="0"></use></g></g><g><use xlink:href="#a22XOQM6Kb" opacity="1" fill="#eeeeee" fill-opacity="1"></use><g><use xlink:href="#a22XOQM6Kb" opacity="1" fill-opacity="0" stroke="#000000" stroke-width="1" stroke-opacity="0"></use></g></g><g><use xlink:href="#beyHgfX70" opacity="1" fill="#616161" fill-opacity="1"></use><g><use xlink:href="#beyHgfX70" opacity="1" fill-opacity="0" stroke="#000000" stroke-width="1" stroke-opacity="0"></use></g></g><g><use xlink:href="#a2banO88y" opacity="1" fill="#bdbdbd" fill-opacity="1"></use><g><use xlink:href="#a2banO88y" opacity="1" fill-opacity="0" stroke="#000000" stroke-width="1" stroke-opacity="0"></use></g></g><g><use xlink:href="#c8iPIOMreO" opacity="1" fill="#9e9e9e" fill-opacity="1"></use><g><use xlink:href="#c8iPIOMreO" opacity="1" fill-opacity="0" stroke="#000000" stroke-width="1" stroke-opacity="0"></use></g></g><g><use xlink:href="#av5K1xtY" opacity="1" fill="#616161" fill-opacity="1"></use><g><use xlink:href="#av5K1xtY" opacity="1" fill-opacity="0" stroke="#000000" stroke-width="1" stroke-opacity="0"></use></g></g><g><use xlink:href="#dblU5ORXk" opacity="1" fill="#eeeeee" fill-opacity="1"></use><g><use xlink:href="#dblU5ORXk" opacity="1" fill-opacity="0" stroke="#000000" stroke-width="1" stroke-opacity="0"></use></g></g><g><use xlink:href="#g4TQpgXZw9" opacity="1" fill="#bdbdbd" fill-opacity="1"></use><g><use xlink:href="#g4TQpgXZw9" opacity="1" fill-opacity="0" stroke="#000000" stroke-width="1" stroke-opacity="0"></use></g></g></g></g></svg>