<?xml version="1.0" encoding="UTF-8" standalone="no"?>
<!DOCTYPE svg PUBLIC "-//W3C//DTD SVG 1.1//EN" "http://www.w3.org/Graphics/SVG/1.1/DTD/svg11.dtd">
<svg version="1.1" xmlns="http://www.w3.org/2000/svg" xmlns:xlink="http://www.w3.org/1999/xlink" preserveAspectRatio="xMidYMid meet" viewBox="0 0 640 640" width="640" height="640"><defs><path d="M416 455.11C416 455.11 416 455.11 416 455.11C416 531.91 416 574.57 416 583.11C416 583.11 416 583.11 416 583.11C300.8 583.11 236.8 583.11 224 583.11C224 583.11 224 583.11 224 583.11C224 506.31 224 463.64 224 455.11C224 455.11 224 455.11 224 455.11C339.2 455.11 403.2 455.11 416 455.11Z" id="c1cDVE4vlg"></path><path d="M416.01 455.11C416.01 455.11 416.01 455.11 416.01 455.11C416.01 531.91 416.01 574.57 416.01 583.11C416.01 583.11 416.01 583.11 416.01 583.11C358.23 583.11 326.13 583.11 319.71 583.11C319.71 583.11 319.71 583.11 319.71 583.11C319.71 506.31 319.71 463.64 319.71 455.11C319.71 455.11 319.71 455.11 319.71 455.11C377.49 455.11 409.59 455.11 416.01 455.11Z" id="bYpo0YVWv"></path><path d="M22.95 497.78C10.28 497.78 0 487.5 0 474.83C0 434.62 0 112.94 0 72.73C0 60.06 10.28 49.78 22.95 49.78C82.36 49.78 557.64 49.78 617.05 49.78C629.72 49.78 640 60.05 640 72.73C640 112.94 640 434.62 640 474.83C640 487.5 629.72 497.78 617.05 497.78C498.23 497.78 82.36 497.78 22.95 497.78Z" id="js0IJCKOy"></path><path d="M319.7 49.78L319.7 497.78C498.11 497.78 597.23 497.78 617.05 497.78C629.72 497.78 640 487.5 640 474.83C640 434.62 640 112.94 640 72.73C640 60.05 629.72 49.78 617.05 49.78C577.4 49.78 478.29 49.78 319.7 49.78Z" id="bN9ZkknXE"></path><path d="M612.84 75.96C612.84 75.96 612.84 75.96 612.84 75.96C612.84 313.34 612.84 445.22 612.84 471.6C612.84 471.6 612.84 471.6 612.84 471.6C261.43 471.6 66.2 471.6 27.16 471.6C27.16 471.6 27.16 471.6 27.16 471.6C27.16 234.21 27.16 102.33 27.16 75.96C27.16 75.96 27.16 75.96 27.16 75.96C378.57 75.96 573.79 75.96 612.84 75.96Z" id="g2Ds5z9kyk"></path><path d="M612.84 75.96C612.84 75.96 612.84 75.96 612.84 75.96C612.84 313.34 612.84 445.22 612.84 471.6C612.84 471.6 612.84 471.6 612.84 471.6C436.96 471.6 339.25 471.6 319.71 471.6C319.71 471.6 319.71 471.6 319.71 471.6C319.71 234.21 319.71 102.33 319.71 75.96C319.71 75.96 319.71 75.96 319.71 75.96C495.59 75.96 593.3 75.96 612.84 75.96Z" id="e4YtYfFuV"></path><path d="M136.08 286.25L239.8 182.55L262.8 205.56L182.11 286.25L262.8 366.95L239.8 389.96L136.08 286.25Z" id="bWLzHKwQE"></path><path d="M368.16 366.95L448.85 286.25L368.16 205.56L391.16 182.55L494.88 286.25L391.16 389.96L368.16 366.95Z" id="cfznkqQJu"></path><path d="M319.7 189.05L319.7 326.55L352.49 191.94L320.87 184.24L319.7 189.05Z" id="f1psD5Ofcj"></path><path d="M304.66 388.27L319.7 326.55L319.7 189.05L273.05 380.57L304.66 388.27Z" id="cMAJzQTcp"></path><path d="M448 561.77C448 561.77 448 561.77 448 561.77C448 600.17 448 621.51 448 625.77C448 625.77 448 625.77 448 625.77C294.4 625.77 209.07 625.77 192 625.77C192 625.77 192 625.77 192 625.77C192 587.37 192 566.04 192 561.77C192 561.77 192 561.77 192 561.77C345.6 561.77 430.93 561.77 448 561.77Z" id="a4MuuhvjP"></path><path d="M448.01 561.77C448.01 561.77 448.01 561.77 448.01 561.77C448.01 600.17 448.01 621.51 448.01 625.77C448.01 625.77 448.01 625.77 448.01 625.77C371.03 625.77 328.26 625.77 319.71 625.77C319.71 625.77 319.71 625.77 319.71 625.77C319.71 587.37 319.71 566.04 319.71 561.77C319.71 561.77 319.71 561.77 319.71 561.77C396.69 561.77 439.45 561.77 448.01 561.77Z" id="aiti0uP9S"></path></defs><g><g><g><use xlink:href="#c1cDVE4vlg" opacity="1" fill="#9e9e9e" fill-opacity="1"></use><g><use xlink:href="#c1cDVE4vlg" opacity="1" fill-opacity="0" stroke="#000000" stroke-width="1" stroke-opacity="0"></use></g></g><g><use xlink:href="#bYpo0YVWv" opacity="1" fill="#616161" fill-opacity="1"></use><g><use xlink:href="#bYpo0YVWv" opacity="1" fill-opacity="0" stroke="#000000" stroke-width="1" stroke-opacity="0"></use></g></g><g><use xlink:href="#js0IJCKOy" opacity="1" fill="#eeeeee" fill-opacity="1"></use><g><use xlink:href="#js0IJCKOy" opacity="1" fill-opacity="0" stroke="#000000" stroke-width="1" stroke-opacity="0"></use></g></g><g><use xlink:href="#bN9ZkknXE" opacity="1" fill="#bdbdbd" fill-opacity="1"></use><g><use xlink:href="#bN9ZkknXE" opacity="1" fill-opacity="0" stroke="#000000" stroke-width="1" stroke-opacity="0"></use></g></g><g><use xlink:href="#g2Ds5z9kyk" opacity="1" fill="#2196f3" fill-opacity="1"></use><g><use xlink:href="#g2Ds5z9kyk" opacity="1" fill-opacity="0" stroke="#000000" stroke-width="1" stroke-opacity="0"></use></g></g><g><use xlink:href="#e4YtYfFuV" opacity="1" fill="#1976d2" fill-opacity="1"></use><g><use xlink:href="#e4YtYfFuV" opacity="1" fill-opacity="0" stroke="#000000" stroke-width="1" stroke-opacity="0"></use></g></g><g><use xlink:href="#bWLzHKwQE" opacity="1" fill="#eeeeee" fill-opacity="1"></use><g><use xlink:href="#bWLzHKwQE" opacity="1" fill-opacity="0" stroke="#000000" stroke-width="1" stroke-opacity="0"></use></g></g><g><use xlink:href="#cfznkqQJu" opacity="1" fill="#bdbdbd" fill-opacity="1"></use><g><use xlink:href="#cfznkqQJu" opacity="1" fill-opacity="0" stroke="#000000" stroke-width="1" stroke-opacity="0"></use></g></g><g><use xlink:href="#f1psD5Ofcj" opacity="1" fill="#bdbdbd" fill-opacity="1"></use><g><use xlink:href="#f1psD5Ofcj" opacity="1" fill-opacity="0" stroke="#000000" stroke-width="1" stroke-opacity="0"></use></g></g><g><use xlink:href="#cMAJzQTcp" opacity="1" fill="#eeeeee" fill-opacity="1"></use><g><use xlink:href="#cMAJzQTcp" opacity="1" fill-opacity="0" stroke="#000000" stroke-width="1" stroke-opacity="0"></use></g></g><g><use xlink:href="#a4MuuhvjP" opacity="1" fill="#eeeeee" fill-opacity="1"></use><g><use xlink:href="#a4MuuhvjP" opacity="1" fill-opacity="0" stroke="#000000" stroke-width="1" stroke-opacity="0"></use></g></g><g><use xlink:href="#aiti0uP9S" opacity="1" fill="#bdbdbd" fill-opacity="1"></use><g><use xlink:href="#aiti0uP9S" opacity="1" fill-opacity="0" stroke="#bdbdbd" stroke-width="1" stroke-opacity="0"></use></g></g></g></g></svg>