<?xml version="1.0" encoding="UTF-8" standalone="no"?>
<!DOCTYPE svg PUBLIC "-//W3C//DTD SVG 1.1//EN" "http://www.w3.org/Graphics/SVG/1.1/DTD/svg11.dtd">
<svg version="1.1" xmlns="http://www.w3.org/2000/svg" xmlns:xlink="http://www.w3.org/1999/xlink" preserveAspectRatio="xMidYMid meet" viewBox="0 0 640 640" width="640" height="640"><defs><path d="M545.17 185.6C539.22 127.79 490.38 82.69 431 82.69C400.39 82.69 372.65 94.75 352.08 114.28C327.69 66.61 278.13 33.96 220.91 33.96C139.58 33.96 73.64 99.9 73.64 181.24C73.64 183.45 73.71 185.65 73.8 187.85C31.6 197.18 0 234.77 0 279.78C0 331.81 42.18 374 94.21 374C139.37 374 500.63 374 545.79 374C597.82 374 640 331.81 640 279.78C640 227.75 597.82 185.57 545.79 185.57C545.58 185.57 545.38 185.6 545.17 185.6Z" id="cDRF3vgbZ"></path><path d="M307.79 127.96C308.52 129.39 312.2 136.58 318.81 149.51C329.35 139.51 335.21 133.96 336.38 132.85C337.46 131.83 338.62 130.92 339.74 129.95C339.36 129.21 336.32 123.28 335.95 122.54C313.71 79.09 269.64 52.1 220.91 52.1C207.42 52.1 194.42 54.2 182.18 58.05C185.68 57.76 189.19 57.51 192.76 57.51C241.48 57.51 285.55 84.5 307.79 127.96Z" id="b4SbL57HIb"></path><path d="M545.95 203.71L528.83 203.71C527.82 193.96 527.26 188.54 527.15 187.45C522.07 138.05 480.73 100.8 430.99 100.8C419.93 100.8 409.14 102.79 398.93 106.4C400.23 106.35 401.52 106.22 402.84 106.22C452.58 106.22 493.91 143.47 499 192.87C499.11 193.95 499.67 199.37 500.67 209.13L517.8 209.13C518.05 209.11 518.19 209.09 518.22 209.09C559.91 209.41 593.73 243.43 593.73 285.2C593.73 317.25 573.77 344.69 545.65 355.88C545.67 355.88 545.77 355.88 545.78 355.88C587.75 355.88 621.88 321.74 621.88 279.78C621.88 238.02 588.07 204 546.38 203.68C546.32 203.68 546.18 203.7 545.95 203.71Z" id="b3uBQCP0Gz"></path><path d="M156.88 340.66L80.25 417.28L115.87 417.28L115.87 533.71L197.89 533.71L197.89 417.28L233.5 417.28L156.88 340.66Z" id="b4ova8CeMv"></path><path d="M467.56 356.33L467.56 340.66L388.19 340.66L388.19 356.33L388.19 469L353.72 469L427.88 543.16L502.03 469L467.56 469L467.56 356.33Z" id="c11GylEK9p"></path></defs><g><g><g><use xlink:href="#cDRF3vgbZ" opacity="1" fill="#2196f3" fill-opacity="1"></use><g><use xlink:href="#cDRF3vgbZ" opacity="1" fill-opacity="0" stroke="#000000" stroke-width="1" stroke-opacity="0"></use></g></g><g><use xlink:href="#b4SbL57HIb" opacity="1" fill="#1976d2" fill-opacity="1"></use><g><use xlink:href="#b4SbL57HIb" opacity="1" fill-opacity="0" stroke="#000000" stroke-width="1" stroke-opacity="0"></use></g></g><g><use xlink:href="#b3uBQCP0Gz" opacity="1" fill="#1976d2" fill-opacity="1"></use><g><use xlink:href="#b3uBQCP0Gz" opacity="1" fill-opacity="0" stroke="#000000" stroke-width="1" stroke-opacity="0"></use></g></g><g><use xlink:href="#b4ova8CeMv" opacity="1" fill="#eeeeee" fill-opacity="1"></use><g><use xlink:href="#b4ova8CeMv" opacity="1" fill-opacity="0" stroke="#000000" stroke-width="1" stroke-opacity="0"></use></g></g><g><use xlink:href="#c11GylEK9p" opacity="1" fill="#bdbdbd" fill-opacity="1"></use><g><use xlink:href="#c11GylEK9p" opacity="1" fill-opacity="0" stroke="#000000" stroke-width="1" stroke-opacity="0"></use></g></g></g></g></svg>