<?xml version="1.0" encoding="UTF-8" standalone="no"?>
<!DOCTYPE svg PUBLIC "-//W3C//DTD SVG 1.1//EN" "http://www.w3.org/Graphics/SVG/1.1/DTD/svg11.dtd">
<svg version="1.1" xmlns="http://www.w3.org/2000/svg" xmlns:xlink="http://www.w3.org/1999/xlink" preserveAspectRatio="xMidYMid meet" viewBox="0 0 640 640" width="640" height="640"><defs><path d="M35.56 544C15.92 544 0 528.08 0 508.44C0 470.75 0 169.24 0 131.55C0 111.92 15.92 96 35.56 96C92.45 96 547.55 96 604.44 96C624.08 96 640 111.92 640 131.55C640 169.24 640 470.75 640 508.44C639.99 528.08 624.08 544 604.44 544C490.67 544 92.45 544 35.56 544Z" id="avU6c2lN6"></path><path d="M318.71 96L318.71 544C490.15 544 585.39 544 604.44 544C624.08 544 640 528.08 640 508.44C640 470.75 640 169.25 640 131.56C640 111.92 624.08 96 604.44 96C566.35 96 471.1 96 318.71 96Z" id="bsF1qO1UP"></path><path d="M639.99 162.91C639.99 162.91 639.99 162.91 639.99 162.91C639.99 221.09 639.99 253.41 639.99 259.88C639.99 259.88 639.99 259.88 639.99 259.88C256 259.88 42.67 259.88 0 259.88C0 259.88 0 259.88 0 259.88C0 201.7 0 169.37 0 162.91C0 162.91 0 162.91 0 162.91C384 162.91 597.33 162.91 639.99 162.91Z" id="aHybox970"></path><path d="M639.99 162.91C639.99 162.91 639.99 162.91 639.99 162.91C639.99 221.09 639.99 253.41 639.99 259.88C639.99 259.88 639.99 259.88 639.99 259.88C447.23 259.88 340.14 259.88 318.72 259.88C318.72 259.88 318.72 259.88 318.72 259.88C318.72 201.7 318.72 169.37 318.72 162.91C318.72 162.91 318.72 162.91 318.72 162.91C511.48 162.91 618.58 162.91 639.99 162.91Z" id="aEDSeDeVh"></path><path d="M320 384C320 384 320 384 320 384C320 422.4 320 443.73 320 448C320 448 320 448 320 448C166.4 448 81.07 448 64 448C64 448 64 448 64 448C64 409.6 64 388.26 64 384C64 384 64 384 64 384C217.6 384 302.93 384 320 384Z" id="h4kTj30qQ7"></path></defs><g><g><g><use xlink:href="#avU6c2lN6" opacity="1" fill="#2196f3" fill-opacity="1"></use><g><use xlink:href="#avU6c2lN6" opacity="1" fill-opacity="0" stroke="#000000" stroke-width="1" stroke-opacity="0"></use></g></g><g><use xlink:href="#bsF1qO1UP" opacity="1" fill="#1976d2" fill-opacity="1"></use><g><use xlink:href="#bsF1qO1UP" opacity="1" fill-opacity="0" stroke="#000000" stroke-width="1" stroke-opacity="0"></use></g></g><g><use xlink:href="#aHybox970" opacity="1" fill="#9e9e9e" fill-opacity="1"></use><g><use xlink:href="#aHybox970" opacity="1" fill-opacity="0" stroke="#000000" stroke-width="1" stroke-opacity="0"></use></g></g><g><use xlink:href="#aEDSeDeVh" opacity="1" fill="#616161" fill-opacity="1"></use><g><use xlink:href="#aEDSeDeVh" opacity="1" fill-opacity="0" stroke="#000000" stroke-width="1" stroke-opacity="0"></use></g></g><g><use xlink:href="#h4kTj30qQ7" opacity="1" fill="#eeeeee" fill-opacity="1"></use><g><use xlink:href="#h4kTj30qQ7" opacity="1" fill-opacity="0" stroke="#000000" stroke-width="1" stroke-opacity="0"></use></g></g></g></g></svg>