<?xml version="1.0" encoding="UTF-8" standalone="no"?>
<!DOCTYPE svg PUBLIC "-//W3C//DTD SVG 1.1//EN" "http://www.w3.org/Graphics/SVG/1.1/DTD/svg11.dtd">
<svg version="1.1" xmlns="http://www.w3.org/2000/svg" xmlns:xlink="http://www.w3.org/1999/xlink" preserveAspectRatio="xMidYMid meet" viewBox="0 0 640 640" width="640" height="640"><defs><path d="M558.19 401.72C603.37 401.72 640 365.13 640 320C640 274.87 603.37 238.28 558.19 238.28C558.19 270.97 558.19 385.38 558.19 401.72Z" id="bOoMuHw89"></path><path d="M561.48 40.73C561.48 40.73 561.48 40.73 561.48 40.73C561.48 375.86 561.48 562.04 561.48 599.27C561.48 599.27 561.48 599.27 561.48 599.27C530.88 599.27 513.89 599.27 510.49 599.27C510.49 599.27 510.49 599.27 510.49 599.27C510.49 264.15 510.49 77.96 510.49 40.73C510.49 40.73 510.49 40.73 510.49 40.73C541.08 40.73 558.08 40.73 561.48 40.73Z" id="a38RcKhSgq"></path><path d="M510.46 599.26C510.46 599.26 409.01 458.86 231.79 418.56C231.79 398.85 231.79 241.13 231.79 221.42C409.01 181.12 510.46 40.73 510.46 40.73C510.46 152.43 510.46 543.4 510.46 599.26Z" id="forseRJWo"></path><path d="M16.77 206.59C7.51 206.59 0 214.08 0 223.33C0 242.67 0 397.32 0 416.65C0 425.9 7.5 433.4 16.77 433.4C38.13 433.4 209 433.4 230.36 433.4C239.62 433.4 247.12 425.9 247.12 416.65C247.12 397.32 247.12 242.67 247.12 223.33C247.12 214.08 239.62 206.59 230.36 206.59C187.64 206.59 38.13 206.59 16.77 206.59Z" id="a5GaO1OreR"></path></defs><g><g><g><use xlink:href="#bOoMuHw89" opacity="1" fill="#eeeeee" fill-opacity="1"></use><g><use xlink:href="#bOoMuHw89" opacity="1" fill-opacity="0" stroke="#000000" stroke-width="1" stroke-opacity="0"></use></g></g><g><use xlink:href="#a38RcKhSgq" opacity="1" fill="#9e9e9e" fill-opacity="1"></use><g><use xlink:href="#a38RcKhSgq" opacity="1" fill-opacity="0" stroke="#000000" stroke-width="1" stroke-opacity="0"></use></g></g><g><use xlink:href="#forseRJWo" opacity="1" fill="#eeeeee" fill-opacity="1"></use><g><use xlink:href="#forseRJWo" opacity="1" fill-opacity="0" stroke="#000000" stroke-width="1" stroke-opacity="0"></use></g></g><g><use xlink:href="#a5GaO1OreR" opacity="1" fill="#2196f3" fill-opacity="1"></use><g><use xlink:href="#a5GaO1OreR" opacity="1" fill-opacity="0" stroke="#000000" stroke-width="1" stroke-opacity="0"></use></g></g></g></g></svg>