<svg width="382" height="382" xmlns="http://www.w3.org/2000/svg">
 <!-- Created with Method Draw - http://github.com/duopixel/Method-Draw/ -->
 <g>
  <title>Layer 1</title>
  <path d="m257.645,296.618c0,8.976 -37.761,16.248 -84.297,16.248s-84.297,-7.271 -84.297,-16.248l0,-283.63l168.594,0l0,283.63z" fill="#2196f3" id="svg_3"/>
  <path d="m257.645,296.618c0,8.976 -37.761,16.248 -84.297,16.248l0,-299.828l84.297,0l0,283.58z" fill="#1976d2" id="svg_4"/>
  <path d="m173.297,0c46.536,0 84.297,5.817 84.297,13.038c0,7.221 -37.761,13.038 -84.297,13.038s-84.297,-5.817 -84.297,-13.038c0.001,-7.221 37.761,-13.038 84.297,-13.038z" fill="#616161" id="svg_5"/>
  <path d="m89.001,260.363l0,-8.224c21.915,7.472 51.601,12.036 84.297,12.036s62.382,-4.563 84.297,-12.036l0,8.224c-22.466,7.221 -52.002,11.634 -84.297,11.634s-61.882,-4.413 -84.297,-11.634zm0,-206.054l0,-8.224c21.915,7.472 51.601,12.036 84.297,12.036s62.382,-4.563 84.297,-12.036l0,8.224c-22.466,7.271 -52.002,11.634 -84.297,11.634s-61.882,-4.413 -84.297,-11.634zm0,41.22l0,-8.224c21.915,7.472 51.601,12.036 84.297,12.036s62.382,-4.563 84.297,-12.036l0,8.224c-22.466,7.221 -52.002,11.634 -84.297,11.634s-61.882,-4.413 -84.297,-11.634zm0,41.221l0,-8.224c21.915,7.472 51.601,12.036 84.297,12.036s62.382,-4.563 84.297,-12.036l0,8.224c-22.466,7.271 -52.002,11.634 -84.297,11.634s-61.882,-4.412 -84.297,-11.634zm0,41.221l0,-8.224c21.915,7.472 51.601,12.036 84.297,12.036s62.382,-4.563 84.297,-12.036l0,8.224c-22.466,7.271 -52.002,11.634 -84.297,11.634s-61.882,-4.413 -84.297,-11.634zm0,41.221l0,-8.224c21.915,7.472 51.601,12.036 84.297,12.036s62.382,-4.563 84.297,-12.036l0,8.224c-22.466,7.271 -52.002,11.634 -84.297,11.634s-61.882,-4.413 -84.297,-11.634z" fill="#eeeeee" id="svg_6"/>
  <path d="m173.297,264.173c32.695,0 62.382,-4.563 84.297,-12.036l0,8.224c-22.466,7.221 -52.002,11.634 -84.297,11.634l0,-7.822l0,0zm0,-33.347l0,-7.823c32.695,0 62.382,-4.563 84.297,-12.036l0,8.224c-22.465,7.272 -52.002,11.635 -84.297,11.635zm0,-41.221l0,-7.823c32.695,0 62.382,-4.563 84.297,-12.036l0,8.224c-22.465,7.272 -52.002,11.635 -84.297,11.635zm0,-41.22l0,-7.823c32.695,0 62.382,-4.563 84.297,-12.036l0,8.224c-22.465,7.272 -52.002,11.635 -84.297,11.635zm0,-41.222l0,-7.823c32.695,0 62.382,-4.563 84.297,-12.036l0,8.224c-22.465,7.222 -52.002,11.635 -84.297,11.635zm0,-41.22l0,-7.823c32.695,0 62.382,-4.563 84.297,-12.036l0,8.224c-22.465,7.272 -52.002,11.635 -84.297,11.635z" fill="#bdbdbd" id="svg_7"/>
  <path d="m217.377,132.839c37.008,0 67.047,30.038 67.047,67.097s-30.038,67.097 -67.047,67.097s-67.047,-30.038 -67.047,-67.097s30.039,-67.097 67.047,-67.097z" fill="#eeeeee" id="svg_8"/>
  <path d="m231.669,135.095l0,0l-1.605,-0.351l0,0l0,0l0,0l0,0l0,0l0,0l0,0c-0.551,-0.1 -1.103,-0.2 -1.655,-0.301c-36.156,-6.017 -70.356,18.354 -76.423,54.51c-6.067,36.156 18.354,70.356 54.51,76.423c0.501,0.1 1.053,0.15 1.554,0.251l0.301,0.05c0.451,0.05 0.853,0.1 1.304,0.15l0.351,0.05c0.501,0.05 1.003,0.1 1.504,0.15l0.251,0c0.401,0.05 0.853,0.05 1.254,0.1l0.501,0.05l1.204,0.05l0.301,0c0.501,0 1.003,0.05 1.504,0.05l0.301,0l1.204,0l0.451,0c0.451,0 0.953,0 1.404,-0.05l0.05,0l0,0c0.501,0 0.953,-0.05 1.454,-0.05l0.401,0c0.401,0 0.803,-0.05 1.154,-0.1l0.351,-0.05c0.501,-0.05 0.953,-0.1 1.454,-0.15l0.301,-0.05c0.401,-0.05 0.753,-0.1 1.154,-0.15l0.501,-0.05l1.003,-0.15l0.451,-0.05c0.451,-0.05 0.853,-0.15 1.304,-0.251l0.651,-0.15l0.753,-0.15l0.703,-0.15l0.853,-0.2l0.753,-0.2c0.351,-0.1 0.703,-0.15 1.053,-0.251l0.601,-0.15l0.753,-0.2l0.651,-0.2c0.351,-0.1 0.702,-0.2 1.053,-0.301l0.753,-0.251l0.702,-0.251l0.703,-0.251l0.702,-0.251l0.651,-0.251l0,0c0.351,-0.15 0.753,-0.301 1.103,-0.401l0.803,-0.301l0.501,-0.2l0.702,-0.301l0.551,-0.251c0.501,-0.2 1.003,-0.451 1.504,-0.702l0.251,-0.15l0.803,-0.401l0.351,-0.2l0.803,-0.401l0.351,-0.2c0.501,-0.251 1.003,-0.551 1.504,-0.803l0.301,-0.2l0.853,-0.501l0.251,-0.15l0.853,-0.501c0.351,-0.2 0.651,-0.401 1.003,-0.601l0.753,-0.501l0.301,-0.2l0.803,-0.551l0.15,-0.1c0.551,-0.401 1.103,-0.803 1.655,-1.204l0.15,-0.1l0.753,-0.551l0.251,-0.2c1.204,-0.903 2.307,-1.855 3.46,-2.858l0.05,-0.05c2.005,-1.755 3.912,-3.661 5.667,-5.667l0.05,-0.05c1.003,-1.154 2.005,-2.357 2.908,-3.561l0.05,-0.05c0.703,-0.903 1.354,-1.855 2.005,-2.808c5.266,-7.723 8.976,-16.649 10.632,-26.478c0.803,-4.864 1.053,-9.678 0.853,-14.392l0,0c0,-0.451 -0.05,-0.853 -0.1,-1.304l0,-0.2l0,-0.2l0,-0.2l-0.1,-0.853l0,-0.2l0,-0.2l0,-0.2l0,-0.05l-0.1,-0.953l-0.05,-0.451l-0.05,-0.2l-0.05,-0.2l-0.1,-0.651l-0.05,-0.2l-0.05,-0.2l-0.05,-0.401l-0.05,-0.2l-0.1,-0.551l-0.15,-0.903l-0.05,-0.2l-0.1,-0.401l-0.2,-1.003l-0.05,-0.2l-0.05,-0.251c-0.1,-0.401 -0.2,-0.853 -0.301,-1.254l-0.05,-0.251c-3.41,-14.141 -11.383,-26.778 -22.566,-35.956l0,0l0,0l0,0c-0.351,-0.251 -0.651,-0.551 -1.003,-0.803l-0.2,-0.15c-0.351,-0.251 -0.702,-0.551 -1.053,-0.803l-0.301,-0.251c-0.351,-0.251 -0.702,-0.501 -1.053,-0.753l-0.251,-0.15c-0.351,-0.251 -0.702,-0.501 -1.053,-0.702l-0.301,-0.2c-0.351,-0.251 -0.702,-0.451 -1.053,-0.702l-0.251,-0.15c-0.401,-0.251 -0.803,-0.501 -1.204,-0.753l-0.05,-0.05l-0.05,0l-0.15,-0.1c-0.401,-0.251 -0.803,-0.451 -1.204,-0.702l-0.05,-0.05l-0.1,-0.05c-0.401,-0.251 -0.803,-0.451 -1.254,-0.651l-0.2,-0.1c-0.401,-0.2 -0.803,-0.451 -1.254,-0.651l-0.2,-0.1c-0.401,-0.2 -0.853,-0.401 -1.254,-0.601l-0.15,-0.05c-0.451,-0.2 -0.903,-0.401 -1.354,-0.651l-0.1,-0.05c-0.451,-0.2 -0.953,-0.401 -1.404,-0.601l-0.05,-0.05c-0.451,-0.2 -0.953,-0.401 -1.404,-0.551l-0.15,-0.05c-0.451,-0.2 -0.953,-0.351 -1.454,-0.551l-0.05,-0.05c-0.501,-0.2 -1.003,-0.351 -1.504,-0.501l-0.05,0c-0.501,-0.15 -1.053,-0.351 -1.554,-0.501l0,0c-0.501,-0.15 -1.053,-0.301 -1.554,-0.451l-0.05,0c-0.501,-0.15 -1.053,-0.301 -1.605,-0.401l-0.05,0c-0.551,-0.15 -1.053,-0.251 -1.605,-0.351l-0.05,0l-0.05,0l-0.064,-0.175zm104.356,219.042c-12.988,10.732 -27.079,20.159 -42.073,28.182l-36.006,-62.483c-2.107,-3.661 -0.903,-8.375 2.758,-10.48l3.209,-1.855l-11.634,-19.958c-15.495,6.168 -32.796,8.324 -50.398,5.366c-51.351,-8.575 -86.002,-57.168 -77.427,-108.467c8.575,-51.351 57.168,-86.002 108.467,-77.427c51.351,8.575 86.002,57.168 77.427,108.467c-4.012,23.87 -16.599,44.079 -34.1,58.07l11.634,19.958l3.259,-1.905c3.661,-2.107 8.375,-0.903 10.48,2.758l34.404,59.774zm-162.175,-166.036l0,0.1c-0.401,2.558 -2.758,4.313 -5.216,3.912c-2.107,-0.351 -3.611,-2.207 -3.711,-4.313l-0.15,0c0.1,-0.853 0.251,-1.755 0.351,-2.658c4.814,-28.785 32.044,-48.191 60.828,-43.377c0.803,0.15 1.605,0.301 2.357,0.451c0.15,0 0.351,0.05 0.501,0.05c2.608,0.451 4.363,2.808 3.912,5.316c-0.401,2.508 -2.858,4.212 -5.416,3.761l-0.15,-0.05l-0.05,0.1c-0.903,-0.2 -1.805,-0.401 -2.708,-0.551c-23.72,-3.962 -46.185,12.036 -50.147,35.755c-0.1,0.501 -0.15,0.953 -0.2,1.454l-0.2,0l0,0.051l-0.001,0l0,-0.001z" fill="#616161" id="svg_9"/>
  <path d="m291.795,291.253l-27.882,16.198l-3.209,1.855c-3.661,2.107 -4.864,6.82 -2.758,10.48l36.006,62.483c14.994,-8.024 29.085,-17.451 42.073,-28.182l-34.401,-59.725c-1.955,-3.41 -6.269,-4.714 -9.829,-3.109z" fill="#2196f3" id="svg_10"/>
  <path d="m287.883,293.459l3.259,-1.905c3.661,-2.107 8.375,-0.903 10.48,2.758l34.401,59.725c-6.369,5.266 -12.988,10.23 -19.908,14.844l-39.165,-69.102l10.932,-6.369l0,0.05l0.001,0l0,-0.001z" fill="#1976d2" id="svg_11"/>
 </g>
</svg>