<?xml version="1.0" encoding="UTF-8" standalone="no"?>
<!DOCTYPE svg PUBLIC "-//W3C//DTD SVG 1.1//EN" "http://www.w3.org/Graphics/SVG/1.1/DTD/svg11.dtd">
<svg version="1.1" xmlns="http://www.w3.org/2000/svg" xmlns:xlink="http://www.w3.org/1999/xlink" preserveAspectRatio="xMidYMid meet" viewBox="0 0 640 640" width="640" height="640"><defs><path d="M579.37 640C612.85 640 640 612.85 640 579.37C640 527.62 640 113.61 640 61.86C640 28.37 612.85 1.22 579.37 1.22C527.4 1.22 111.67 1.22 59.71 1.22C26.22 1.22 -0.93 28.37 -0.93 61.86C-0.93 113.61 -0.93 527.62 -0.93 579.37C-0.93 612.85 26.22 640 59.71 640C163.64 640 527.4 640 579.37 640Z" id="bt5CbBuoo"></path><path d="M318.1 1.22L318.1 640C474.86 640 561.95 640 579.37 640C612.85 640 640 612.85 640 579.37C640 527.62 640 113.61 640 61.86C640 28.37 612.85 1.22 579.37 1.22C544.53 1.22 457.44 1.22 318.1 1.22Z" id="b43t7VFCXm"></path><path d="M199.44 206.97C187.03 210.69 173.9 203.94 169.52 191.76C159.01 162.58 148.51 133.4 138 104.23C133.24 90.99 140.59 76.57 154.03 72.42C261.85 39.13 377.22 39.13 485.04 72.42C498.48 76.57 505.83 90.99 501.07 104.23C490.56 133.4 480.06 162.58 469.56 191.76C465.17 203.94 452.04 210.69 439.63 206.97C361.29 183.54 277.78 183.54 199.44 206.97Z" id="a1baPjAvar"></path><path d="M318.1 47.45C318.1 61.65 318.1 175.21 318.1 189.4C359.05 189.26 400 195.1 439.63 206.95C452.04 210.67 465.17 203.92 469.56 191.74C480.06 162.56 490.57 133.38 501.07 104.21C505.83 90.97 498.48 76.54 485.04 72.39C430.67 55.6 374.38 47.3 318.1 47.45Z" id="c6ykytHZDF"></path><path d="M95.14 569.03C81.88 569.03 71.12 558.27 71.12 545.01C71.12 521.42 71.12 332.73 71.12 309.14C71.12 295.88 81.88 285.13 95.14 285.13C111.63 285.13 243.54 285.13 260.03 285.13C273.3 285.13 284.05 295.88 284.05 309.14C284.05 332.73 284.05 521.42 284.05 545.01C284.05 558.27 273.29 569.03 260.03 569.03C227.05 569.03 111.63 569.03 95.14 569.03Z" id="a29b11hlVk"></path><path d="M379.04 569.03C365.78 569.03 355.03 558.27 355.03 545.01C355.03 521.42 355.03 332.73 355.03 309.14C355.03 295.88 365.78 285.13 379.04 285.13C395.53 285.13 527.44 285.13 543.93 285.13C557.2 285.13 567.95 295.88 567.95 309.14C567.95 332.73 567.95 521.42 567.95 545.01C567.95 558.27 557.2 569.03 543.93 569.03C510.96 569.03 395.53 569.03 379.04 569.03Z" id="a4GW13EHjg"></path><path d="M203.79 95.12C202.2 91.94 198.33 90.65 195.13 92.23C191.94 93.83 190.65 97.7 192.24 100.89C197.05 110.5 235.49 187.37 240.29 196.98C244.71 196.14 249.13 195.37 253.56 194.66C243.6 174.75 208.76 105.07 203.79 95.12Z" id="g9gBiX86B"></path></defs><g><g><g><use xlink:href="#bt5CbBuoo" opacity="1" fill="#2196f3" fill-opacity="1"></use><g><use xlink:href="#bt5CbBuoo" opacity="1" fill-opacity="0" stroke="#000000" stroke-width="1" stroke-opacity="0"></use></g></g><g><use xlink:href="#b43t7VFCXm" opacity="1" fill="#1976d2" fill-opacity="1"></use><g><use xlink:href="#b43t7VFCXm" opacity="1" fill-opacity="0" stroke="#000000" stroke-width="1" stroke-opacity="0"></use></g></g><g><use xlink:href="#a1baPjAvar" opacity="1" fill="#eeeeee" fill-opacity="1"></use><g><use xlink:href="#a1baPjAvar" opacity="1" fill-opacity="0" stroke="#000000" stroke-width="1" stroke-opacity="0"></use></g></g><g><use xlink:href="#c6ykytHZDF" opacity="1" fill="#bdbdbd" fill-opacity="1"></use><g><use xlink:href="#c6ykytHZDF" opacity="1" fill-opacity="0" stroke="#000000" stroke-width="1" stroke-opacity="0"></use></g></g><g><use xlink:href="#a29b11hlVk" opacity="1" fill="#9e9e9e" fill-opacity="1"></use><g><use xlink:href="#a29b11hlVk" opacity="1" fill-opacity="0" stroke="#000000" stroke-width="1" stroke-opacity="0"></use></g></g><g><use xlink:href="#a4GW13EHjg" opacity="1" fill="#616161" fill-opacity="1"></use><g><use xlink:href="#a4GW13EHjg" opacity="1" fill-opacity="0" stroke="#000000" stroke-width="1" stroke-opacity="0"></use></g></g><g><use xlink:href="#g9gBiX86B" opacity="1" fill="#9e9e9e" fill-opacity="1"></use><g><use xlink:href="#g9gBiX86B" opacity="1" fill-opacity="0" stroke="#000000" stroke-width="1" stroke-opacity="0"></use></g></g></g></g></svg>