<?xml version="1.0" encoding="UTF-8" standalone="no"?>
<!DOCTYPE svg PUBLIC "-//W3C//DTD SVG 1.1//EN" "http://www.w3.org/Graphics/SVG/1.1/DTD/svg11.dtd">
<svg version="1.1" xmlns="http://www.w3.org/2000/svg" xmlns:xlink="http://www.w3.org/1999/xlink" preserveAspectRatio="xMidYMid meet" viewBox="0 0 640 640" width="640" height="640"><defs><path d="M426.12 419.62C426.12 261.9 426.12 174.28 426.12 156.75C426.12 98.24 378.51 50.63 320 50.63C261.49 50.63 213.89 98.24 213.89 156.75C213.89 174.28 213.89 261.9 213.89 419.62L163.26 419.62C163.26 261.9 163.26 174.28 163.26 156.75C163.26 70.32 233.57 0 320 0C406.43 0 476.75 70.32 476.75 156.75C476.75 174.28 476.75 261.9 476.75 419.62L426.12 419.62Z" id="gbNNoWuu8"></path><path d="M319.46 0.01C319.46 5.07 319.46 45.59 319.46 50.65C319.64 50.65 319.82 50.62 320 50.62C378.51 50.62 426.11 98.23 426.11 156.74C426.11 174.27 426.11 261.89 426.11 419.61L476.74 419.61C476.74 261.89 476.74 174.27 476.74 156.74C476.75 70.32 406.43 0 320 0C319.82 0 319.64 0.01 319.46 0.01Z" id="bSary1X2j"></path><path d="M134.75 640C112.78 640 94.97 622.19 94.97 600.22C94.97 570.67 94.97 334.27 94.97 304.72C94.97 282.75 112.78 264.94 134.75 264.94C171.8 264.94 468.2 264.94 505.25 264.94C527.22 264.94 545.03 282.75 545.03 304.72C545.03 334.27 545.03 570.67 545.03 600.22C545.03 622.19 527.22 640 505.25 640C431.15 640 171.8 640 134.75 640Z" id="cakqEi0s"></path><path d="M319.46 264.95L319.46 640C430.94 640 492.87 640 505.25 640C527.22 640 545.03 622.19 545.03 600.22C545.03 570.67 545.03 334.27 545.03 304.72C545.03 282.76 527.22 264.95 505.25 264.95C480.48 264.95 418.55 264.95 319.46 264.95Z" id="gp8GZiqss"></path><path d="M320 365.13C290.49 365.13 266.56 389.05 266.56 418.57C266.56 438.34 277.32 455.56 293.28 464.81C293.28 470.79 293.28 518.67 293.28 524.65C293.28 539.41 305.25 551.37 320.01 551.37C334.77 551.37 346.73 539.41 346.73 524.65C346.73 518.67 346.73 470.79 346.73 464.81C362.68 455.56 373.45 438.34 373.45 418.57C373.45 389.05 349.52 365.13 320 365.13Z" id="e2hewvlwK"></path><path d="M319.46 365.16C319.46 383.77 319.46 532.71 319.46 551.32C319.65 551.33 319.82 551.38 320 551.38C334.76 551.38 346.73 539.41 346.73 524.65C346.73 518.67 346.73 470.8 346.73 464.81C362.69 455.57 373.45 438.35 373.45 418.57C373.45 389.05 349.52 365.13 320 365.13C319.82 365.13 319.65 365.16 319.46 365.16Z" id="ad9WDq7us"></path></defs><g><g><g><use xlink:href="#gbNNoWuu8" opacity="1" fill="#eeeeee" fill-opacity="1"></use><g><use xlink:href="#gbNNoWuu8" opacity="1" fill-opacity="0" stroke="#000000" stroke-width="1" stroke-opacity="0"></use></g></g><g><use xlink:href="#bSary1X2j" opacity="1" fill="#bdbdbd" fill-opacity="1"></use><g><use xlink:href="#bSary1X2j" opacity="1" fill-opacity="0" stroke="#000000" stroke-width="1" stroke-opacity="0"></use></g></g><g><use xlink:href="#cakqEi0s" opacity="1" fill="#9e9e9e" fill-opacity="1"></use><g><use xlink:href="#cakqEi0s" opacity="1" fill-opacity="0" stroke="#000000" stroke-width="1" stroke-opacity="0"></use></g></g><g><use xlink:href="#gp8GZiqss" opacity="1" fill="#616161" fill-opacity="1"></use><g><use xlink:href="#gp8GZiqss" opacity="1" fill-opacity="0" stroke="#000000" stroke-width="1" stroke-opacity="0"></use></g></g><g><use xlink:href="#e2hewvlwK" opacity="1" fill="#eeeeee" fill-opacity="1"></use><g><use xlink:href="#e2hewvlwK" opacity="1" fill-opacity="0" stroke="#000000" stroke-width="1" stroke-opacity="0"></use></g></g><g><use xlink:href="#ad9WDq7us" opacity="1" fill="#bdbdbd" fill-opacity="1"></use><g><use xlink:href="#ad9WDq7us" opacity="1" fill-opacity="0" stroke="#000000" stroke-width="1" stroke-opacity="0"></use></g></g></g></g></svg>