<?xml version="1.0" encoding="UTF-8" standalone="no"?>
<!DOCTYPE svg PUBLIC "-//W3C//DTD SVG 1.1//EN" "http://www.w3.org/Graphics/SVG/1.1/DTD/svg11.dtd">
<svg version="1.1" xmlns="http://www.w3.org/2000/svg" xmlns:xlink="http://www.w3.org/1999/xlink" preserveAspectRatio="xMidYMid meet" viewBox="0 0 640 640" width="640" height="640"><defs><path d="M321.8 77.91C321.8 79.53 321.8 92.49 321.8 94.11C447.34 95.09 549.18 197.48 549.18 323.25C549.18 449.02 447.34 551.41 321.8 552.39C321.8 554.01 321.8 566.96 321.8 568.58C456.26 567.61 565.36 457.94 565.36 323.25C565.36 188.56 456.26 78.88 321.8 77.91Z" id="b1pIlr9cRF"></path><path d="M90.82 323.25C90.82 196.88 193.63 94.07 320 94.07C320.6 94.07 321.2 94.11 321.8 94.11C321.8 92.49 321.8 79.53 321.8 77.91C321.2 77.91 320.6 77.89 320 77.89C184.71 77.89 74.64 187.95 74.64 323.25C74.64 458.54 184.71 568.61 320 568.61C320.6 568.61 321.2 568.59 321.8 568.58C321.8 566.96 321.8 554 321.8 552.38C321.2 552.39 320.6 552.43 320 552.43C193.63 552.43 90.82 449.62 90.82 323.25Z" id="bmIRaaKl6"></path><path d="M320 108.62C368.34 108.62 407.52 147.8 407.52 196.14C395.85 196.14 337.5 196.14 232.47 196.14C258.6 137.79 287.77 108.62 320 108.62Z" id="a3auIfG8u"></path><path d="M321.35 196.14C373.05 196.14 401.78 196.14 407.52 196.14C407.52 148.25 369.06 109.37 321.35 108.65C321.35 120.32 321.35 149.48 321.35 196.14Z" id="b30MbyI5a"></path><path d="M321.4 18.32C299.63 18.32 281.98 35.97 281.98 57.75C281.98 79.52 299.63 97.17 321.4 97.17C343.17 97.17 360.83 79.52 360.83 57.75C360.83 35.97 343.17 18.32 321.4 18.32Z" id="j3BLXJiWx4"></path><path d="M321.35 18.34C321.35 26.22 321.35 89.3 321.35 97.18C321.37 97.18 321.39 97.19 321.41 97.19C343.19 97.19 360.84 79.54 360.84 57.76C360.84 35.99 343.19 18.33 321.41 18.33C321.39 18.33 321.37 18.34 321.35 18.34Z" id="c4vRRwtYu"></path><path d="M320 508.28C368.34 508.28 407.52 547.47 407.52 595.81C395.85 595.81 337.5 595.81 232.47 595.8C258.6 537.46 287.77 508.28 320 508.28Z" id="b4IvYfCKSO"></path><path d="M321.35 595.8C373.05 595.8 401.78 595.8 407.52 595.8C407.52 547.92 369.06 509.04 321.35 508.32C321.35 519.98 321.35 549.14 321.35 595.8Z" id="c1HiZ78H8F"></path><path d="M321.4 417.99C299.63 417.99 281.98 435.64 281.98 457.42C281.98 479.19 299.63 496.84 321.4 496.84C343.17 496.84 360.83 479.19 360.83 457.42C360.83 435.64 343.17 417.99 321.4 417.99Z" id="hdtAHZjwE"></path><path d="M321.35 418.01C321.35 425.89 321.35 488.97 321.35 496.85C321.37 496.85 321.39 496.86 321.41 496.86C343.19 496.86 360.84 479.21 360.84 457.43C360.84 435.65 343.19 418 321.41 418C321.39 418 321.37 418.01 321.35 418.01Z" id="fZ9bb2O3i"></path><path d="M87.53 308.45C135.86 308.45 175.05 347.64 175.05 395.98C163.38 395.97 105.03 395.97 0 395.97C26.12 337.62 55.3 308.45 87.53 308.45Z" id="a6425xDtR"></path><path d="M88.87 395.97C140.58 395.97 169.31 395.97 175.05 395.97C175.05 348.09 136.59 309.21 88.87 308.48C88.87 320.15 88.87 349.31 88.87 395.97Z" id="a247fu7S4B"></path><path d="M88.94 218.17C67.16 218.17 49.51 235.82 49.51 257.6C49.51 279.37 67.16 297.02 88.94 297.02C110.71 297.02 128.36 279.37 128.36 257.6C128.36 235.82 110.71 218.17 88.94 218.17Z" id="aMymhBBx7"></path><path d="M88.87 218.17C88.87 226.06 88.87 289.13 88.87 297.02C88.9 297.02 88.92 297.02 88.94 297.02C110.71 297.02 128.36 279.37 128.36 257.6C128.36 235.82 110.71 218.17 88.94 218.17C88.92 218.17 88.89 218.17 88.87 218.17Z" id="f2sAxaeGG"></path><path d="M552.47 308.45C600.81 308.45 640 347.64 640 395.98C628.33 395.97 569.98 395.97 464.95 395.97C491.07 337.62 520.25 308.45 552.47 308.45Z" id="a1mIfiPuJM"></path><path d="M553.82 395.97C605.53 395.97 634.25 395.97 640 395.97C640 348.09 601.54 309.21 553.82 308.48C553.82 320.15 553.82 349.31 553.82 395.97Z" id="c2DTxYkule"></path><path d="M553.9 218.17C532.13 218.17 514.47 235.82 514.47 257.6C514.47 279.37 532.13 297.02 553.9 297.02C575.67 297.02 593.32 279.37 593.32 257.6C593.32 235.82 575.67 218.17 553.9 218.17Z" id="c3n0Uf9ME"></path><path d="M553.82 218.17C553.82 226.06 553.82 289.13 553.82 297.02C553.84 297.02 553.87 297.02 553.89 297.02C575.66 297.02 593.31 279.37 593.31 257.6C593.31 235.82 575.66 218.17 553.89 218.17C553.86 218.17 553.84 218.17 553.82 218.17Z" id="c6E6PATp4C"></path></defs><g><g><g><use xlink:href="#b1pIlr9cRF" opacity="1" fill="#616161" fill-opacity="1"></use><g><use xlink:href="#b1pIlr9cRF" opacity="1" fill-opacity="0" stroke="#000000" stroke-width="1" stroke-opacity="0"></use></g></g><g><use xlink:href="#bmIRaaKl6" opacity="1" fill="#9e9e9e" fill-opacity="1"></use><g><use xlink:href="#bmIRaaKl6" opacity="1" fill-opacity="0" stroke="#000000" stroke-width="1" stroke-opacity="0"></use></g></g><g><use xlink:href="#a3auIfG8u" opacity="1" fill="#eeeeee" fill-opacity="1"></use><g><use xlink:href="#a3auIfG8u" opacity="1" fill-opacity="0" stroke="#000000" stroke-width="1" stroke-opacity="0"></use></g></g><g><use xlink:href="#b30MbyI5a" opacity="1" fill="#bdbdbd" fill-opacity="1"></use><g><use xlink:href="#b30MbyI5a" opacity="1" fill-opacity="0" stroke="#000000" stroke-width="1" stroke-opacity="0"></use></g></g><g><use xlink:href="#j3BLXJiWx4" opacity="1" fill="#eeeeee" fill-opacity="1"></use><g><use xlink:href="#j3BLXJiWx4" opacity="1" fill-opacity="0" stroke="#000000" stroke-width="1" stroke-opacity="0"></use></g></g><g><use xlink:href="#c4vRRwtYu" opacity="1" fill="#bdbdbd" fill-opacity="1"></use><g><use xlink:href="#c4vRRwtYu" opacity="1" fill-opacity="0" stroke="#000000" stroke-width="1" stroke-opacity="0"></use></g></g><g><use xlink:href="#b4IvYfCKSO" opacity="1" fill="#eeeeee" fill-opacity="1"></use><g><use xlink:href="#b4IvYfCKSO" opacity="1" fill-opacity="0" stroke="#000000" stroke-width="1" stroke-opacity="0"></use></g></g><g><use xlink:href="#c1HiZ78H8F" opacity="1" fill="#bdbdbd" fill-opacity="1"></use><g><use xlink:href="#c1HiZ78H8F" opacity="1" fill-opacity="0" stroke="#000000" stroke-width="1" stroke-opacity="0"></use></g></g><g><use xlink:href="#hdtAHZjwE" opacity="1" fill="#eeeeee" fill-opacity="1"></use><g><use xlink:href="#hdtAHZjwE" opacity="1" fill-opacity="0" stroke="#000000" stroke-width="1" stroke-opacity="0"></use></g></g><g><use xlink:href="#fZ9bb2O3i" opacity="1" fill="#bdbdbd" fill-opacity="1"></use><g><use xlink:href="#fZ9bb2O3i" opacity="1" fill-opacity="0" stroke="#000000" stroke-width="1" stroke-opacity="0"></use></g></g><g><use xlink:href="#a6425xDtR" opacity="1" fill="#2196f3" fill-opacity="1"></use><g><use xlink:href="#a6425xDtR" opacity="1" fill-opacity="0" stroke="#000000" stroke-width="1" stroke-opacity="0"></use></g></g><g><use xlink:href="#a247fu7S4B" opacity="1" fill="#1976d2" fill-opacity="1"></use><g><use xlink:href="#a247fu7S4B" opacity="1" fill-opacity="0" stroke="#000000" stroke-width="1" stroke-opacity="0"></use></g></g><g><use xlink:href="#aMymhBBx7" opacity="1" fill="#2196f3" fill-opacity="1"></use><g><use xlink:href="#aMymhBBx7" opacity="1" fill-opacity="0" stroke="#000000" stroke-width="1" stroke-opacity="0"></use></g></g><g><use xlink:href="#f2sAxaeGG" opacity="1" fill="#1976d2" fill-opacity="1"></use><g><use xlink:href="#f2sAxaeGG" opacity="1" fill-opacity="0" stroke="#000000" stroke-width="1" stroke-opacity="0"></use></g></g><g><use xlink:href="#a1mIfiPuJM" opacity="1" fill="#2196f3" fill-opacity="1"></use><g><use xlink:href="#a1mIfiPuJM" opacity="1" fill-opacity="0" stroke="#000000" stroke-width="1" stroke-opacity="0"></use></g></g><g><use xlink:href="#c2DTxYkule" opacity="1" fill="#1976d2" fill-opacity="1"></use><g><use xlink:href="#c2DTxYkule" opacity="1" fill-opacity="0" stroke="#000000" stroke-width="1" stroke-opacity="0"></use></g></g><g><use xlink:href="#c3n0Uf9ME" opacity="1" fill="#2196f3" fill-opacity="1"></use><g><use xlink:href="#c3n0Uf9ME" opacity="1" fill-opacity="0" stroke="#000000" stroke-width="1" stroke-opacity="0"></use></g></g><g><use xlink:href="#c6E6PATp4C" opacity="1" fill="#1976d2" fill-opacity="1"></use><g><use xlink:href="#c6E6PATp4C" opacity="1" fill-opacity="0" stroke="#000000" stroke-width="1" stroke-opacity="0"></use></g></g></g></g></svg>